<svg width="1067" height="400" viewBox="0 0 1067 400" fill="none" xmlns="http://www.w3.org/2000/svg">
<g clip-path="url(#clip0_81_3)">
<rect x="0.286865" width="1066.67" height="400" fill="white"/>
<g opacity="0.66" clip-path="url(#clip1_81_3)">
<path d="M20.3835 -28.342H-8.12292V0.173374H20.3835V-28.342Z" stroke="#DDDDDD" stroke-width="1.5"/>
<path d="M48.89 -28.342H20.3835V0.173374H48.89V-28.342Z" stroke="#DDDDDD" stroke-width="1.5"/>
<path d="M77.3965 -28.342H48.89V0.173374H77.3965V-28.342Z" fill="#E2E7F0" fill-opacity="0.3" stroke="#DDDDDD" stroke-width="1.5"/>
<path d="M105.903 -28.342H77.3965V0.173374H105.903V-28.342Z" stroke="#DDDDDD" stroke-width="1.5"/>
<path d="M134.409 -28.342H105.903V0.173374H134.409V-28.342Z" stroke="#DDDDDD" stroke-width="1.5"/>
<path d="M162.916 -28.342H134.409V0.173374H162.916V-28.342Z" stroke="#DDDDDD" stroke-width="1.5"/>
<path d="M191.422 -28.342H162.916V0.173374H191.422V-28.342Z" stroke="#DDDDDD" stroke-width="1.5"/>
<path d="M219.929 -28.342H191.422V0.173374H219.929V-28.342Z" stroke="#DDDDDD" stroke-width="1.5"/>
<path d="M248.435 -28.342H219.929V0.173374H248.435V-28.342Z" fill="#E2E7F0" fill-opacity="0.3" stroke="#DDDDDD" stroke-width="1.5"/>
<path d="M276.942 -28.342H248.435V0.173374H276.942V-28.342Z" stroke="#DDDDDD" stroke-width="1.5"/>
<path d="M305.448 -28.342H276.942V0.173374H305.448V-28.342Z" stroke="#DDDDDD" stroke-width="1.5"/>
<path d="M333.955 -28.342H305.448V0.173374H333.955V-28.342Z" stroke="#DDDDDD" stroke-width="1.5"/>
<path d="M619.019 -28.342H590.513V0.173374H619.019V-28.342Z" stroke="#DDDDDD" stroke-width="1.5"/>
<path d="M647.526 -28.342H619.019V0.173374H647.526V-28.342Z" stroke="#DDDDDD" stroke-width="1.5"/>
<path d="M676.032 -28.342H647.526V0.173374H676.032V-28.342Z" stroke="#DDDDDD" stroke-width="1.5"/>
<path d="M704.539 -28.342H676.032V0.173374H704.539V-28.342Z" stroke="#DDDDDD" stroke-width="1.5"/>
<path d="M733.045 -28.342H704.539V0.173374H733.045V-28.342Z" fill="#E2E7F0" fill-opacity="0.3" stroke="#DDDDDD" stroke-width="1.5"/>
<path d="M761.552 -28.342H733.045V0.173374H761.552V-28.342Z" stroke="#DDDDDD" stroke-width="1.5"/>
<path d="M790.058 -28.342H761.552V0.173374H790.058V-28.342Z" stroke="#DDDDDD" stroke-width="1.5"/>
<path d="M818.565 -28.342H790.058V0.173374H818.565V-28.342Z" fill="#E2E7F0" fill-opacity="0.3" stroke="#DDDDDD" stroke-width="1.5"/>
<path d="M847.071 -28.342H818.565V0.173374H847.071V-28.342Z" stroke="#DDDDDD" stroke-width="1.5"/>
<path d="M875.578 -28.342H847.071V0.173374H875.578V-28.342Z" stroke="#DDDDDD" stroke-width="1.5"/>
<path d="M904.084 -28.342H875.578V0.173374H904.084V-28.342Z" stroke="#DDDDDD" stroke-width="1.5"/>
<path d="M932.591 -28.342H904.084V0.173374H932.591V-28.342Z" stroke="#DDDDDD" stroke-width="1.5"/>
<path d="M961.097 -28.342H932.591V0.173374H961.097V-28.342Z" stroke="#DDDDDD" stroke-width="1.5"/>
<path d="M989.604 -28.342H961.097V0.173374H989.604V-28.342Z" stroke="#DDDDDD" stroke-width="1.5"/>
<path d="M1018.11 -28.342H989.604V0.173374H1018.11V-28.342Z" stroke="#DDDDDD" stroke-width="1.5"/>
<path d="M1046.62 -28.342H1018.11V0.173374H1046.62V-28.342Z" stroke="#DDDDDD" stroke-width="1.5"/>
<path d="M1075.12 -28.342H1046.62V0.173374H1075.12V-28.342Z" fill="#E2E7F0" fill-opacity="0.3" stroke="#DDDDDD" stroke-width="1.5"/>
<path d="M20.3835 0.173374H-8.12292V28.6887H20.3835V0.173374Z" stroke="#DDDDDD" stroke-width="1.5"/>
<path d="M48.89 0.173374H20.3835V28.6887H48.89V0.173374Z" stroke="#DDDDDD" stroke-width="1.5"/>
<path d="M77.3965 0.173374H48.89V28.6887H77.3965V0.173374Z" stroke="#DDDDDD" stroke-width="1.5"/>
<path d="M105.903 0.173374H77.3965V28.6887H105.903V0.173374Z" stroke="#DDDDDD" stroke-width="1.5"/>
<path d="M134.409 0.173374H105.903V28.6887H134.409V0.173374Z" stroke="#DDDDDD" stroke-width="1.5"/>
<path d="M162.916 0.173374H134.409V28.6887H162.916V0.173374Z" stroke="#DDDDDD" stroke-width="1.5"/>
<path d="M191.422 0.173374H162.916V28.6887H191.422V0.173374Z" fill="#E2E7F0" fill-opacity="0.3" stroke="#DDDDDD" stroke-width="1.5"/>
<path d="M219.929 0.173374H191.422V28.6887H219.929V0.173374Z" stroke="#DDDDDD" stroke-width="1.5"/>
<path d="M333.955 0.173374H305.448V28.6887H333.955V0.173374Z" stroke="#DDDDDD" stroke-width="1.5"/>
<path d="M362.461 0.173374H333.955V28.6887H362.461V0.173374Z" stroke="#DDDDDD" stroke-width="1.5"/>
<path d="M390.968 0.173374H362.461V28.6887H390.968V0.173374Z" stroke="#DDDDDD" stroke-width="1.5"/>
<path d="M419.474 0.173374H390.968V28.6887H419.474V0.173374Z" stroke="#DDDDDD" stroke-width="1.5"/>
<path d="M447.981 0.173374H419.474V28.6887H447.981V0.173374Z" stroke="#DDDDDD" stroke-width="1.5"/>
<path d="M476.487 0.173374H447.981V28.6887H476.487V0.173374Z" stroke="#DDDDDD" stroke-width="1.5"/>
<path d="M904.084 0.173374H875.578V28.6887H904.084V0.173374Z" stroke="#DDDDDD" stroke-width="1.5"/>
<path d="M932.591 0.173374H904.084V28.6887H932.591V0.173374Z" fill="#E2E7F0" fill-opacity="0.3" stroke="#DDDDDD" stroke-width="1.5"/>
<path d="M961.097 0.173374H932.591V28.6887H961.097V0.173374Z" stroke="#DDDDDD" stroke-width="1.5"/>
<path d="M989.604 0.173374H961.097V28.6887H989.604V0.173374Z" stroke="#DDDDDD" stroke-width="1.5"/>
<path d="M1018.11 0.173374H989.604V28.6887H1018.11V0.173374Z" stroke="#DDDDDD" stroke-width="1.5"/>
<path d="M1046.62 0.173374H1018.11V28.6887H1046.62V0.173374Z" stroke="#DDDDDD" stroke-width="1.5"/>
<path d="M1075.12 0.173374H1046.62V28.6887H1075.12V0.173374Z" stroke="#DDDDDD" stroke-width="1.5"/>
<path d="M20.3835 28.6887H-8.12292V57.204H20.3835V28.6887Z" stroke="#DDDDDD" stroke-width="1.5"/>
<path d="M48.89 28.6887H20.3835V57.204H48.89V28.6887Z" stroke="#DDDDDD" stroke-width="1.5"/>
<path d="M77.3965 28.6887H48.89V57.204H77.3965V28.6887Z" stroke="#DDDDDD" stroke-width="1.5"/>
<path d="M105.903 28.6887H77.3965V57.204H105.903V28.6887Z" stroke="#DDDDDD" stroke-width="1.5"/>
<path d="M134.409 28.6887H105.903V57.204H134.409V28.6887Z" stroke="#DDDDDD" stroke-width="1.5"/>
<path d="M162.916 28.6887H134.409V57.204H162.916V28.6887Z" stroke="#DDDDDD" stroke-width="1.5"/>
<path d="M333.955 28.6887H305.448V57.204H333.955V28.6887Z" stroke="#DDDDDD" stroke-width="1.5"/>
<path d="M619.019 28.6887H590.513V57.204H619.019V28.6887Z" stroke="#DDDDDD" stroke-width="1.5"/>
<path d="M647.526 28.6887H619.019V57.204H647.526V28.6887Z" stroke="#DDDDDD" stroke-width="1.5"/>
<path d="M676.032 28.6887H647.526V57.204H676.032V28.6887Z" stroke="#DDDDDD" stroke-width="1.5"/>
<path d="M704.539 28.6887H676.032V57.204H704.539V28.6887Z" stroke="#DDDDDD" stroke-width="1.5"/>
<path d="M733.045 28.6887H704.539V57.204H733.045V28.6887Z" stroke="#DDDDDD" stroke-width="1.5"/>
<path d="M761.552 28.6887H733.045V57.204H761.552V28.6887Z" stroke="#DDDDDD" stroke-width="1.5"/>
<path d="M790.058 28.6887H761.552V57.204H790.058V28.6887Z" stroke="#DDDDDD" stroke-width="1.5"/>
<path d="M961.097 28.6887H932.591V57.204H961.097V28.6887Z" stroke="#DDDDDD" stroke-width="1.5"/>
<path d="M989.604 28.6887H961.097V57.204H989.604V28.6887Z" stroke="#DDDDDD" stroke-width="1.5"/>
<path d="M1018.11 28.6887H989.604V57.204H1018.11V28.6887Z" stroke="#DDDDDD" stroke-width="1.5"/>
<path d="M1046.62 28.6887H1018.11V57.204H1046.62V28.6887Z" stroke="#DDDDDD" stroke-width="1.5"/>
<path d="M1075.12 28.6887H1046.62V57.204H1075.12V28.6887Z" stroke="#DDDDDD" stroke-width="1.5"/>
<path d="M20.3835 57.204H-8.12292V85.7193H20.3835V57.204Z" stroke="#DDDDDD" stroke-width="1.5"/>
<path d="M48.89 57.204H20.3835V85.7193H48.89V57.204Z" stroke="#DDDDDD" stroke-width="1.5"/>
<path d="M77.3965 57.204H48.89V85.7193H77.3965V57.204Z" stroke="#DDDDDD" stroke-width="1.5"/>
<path d="M105.903 57.204H77.3965V85.7193H105.903V57.204Z" stroke="#DDDDDD" stroke-width="1.5"/>
<path d="M134.409 57.204H105.903V85.7193H134.409V57.204Z" stroke="#DDDDDD" stroke-width="1.5"/>
<path d="M162.916 57.204H134.409V85.7193H162.916V57.204Z" stroke="#DDDDDD" stroke-width="1.5"/>
<path d="M191.422 57.204H162.916V85.7193H191.422V57.204Z" stroke="#DDDDDD" stroke-width="1.5"/>
<path d="M219.929 57.204H191.422V85.7193H219.929V57.204Z" stroke="#DDDDDD" stroke-width="1.5"/>
<path d="M790.058 57.204H761.552V85.7193H790.058V57.204Z" stroke="#DDDDDD" stroke-width="1.5"/>
<path d="M847.071 57.204H818.565V85.7193H847.071V57.204Z" fill="#E2E7F0" fill-opacity="0.3" stroke="#DDDDDD" stroke-width="1.5"/>
<path d="M875.578 57.204H847.071V85.7193H875.578V57.204Z" stroke="#DDDDDD" stroke-width="1.5"/>
<path d="M904.084 57.204H875.578V85.7193H904.084V57.204Z" stroke="#DDDDDD" stroke-width="1.5"/>
<path d="M932.591 57.204H904.084V85.7193H932.591V57.204Z" stroke="#DDDDDD" stroke-width="1.5"/>
<path d="M961.097 57.204H932.591V85.7193H961.097V57.204Z" stroke="#DDDDDD" stroke-width="1.5"/>
<path d="M989.604 57.204H961.097V85.7193H989.604V57.204Z" fill="#E2E7F0" fill-opacity="0.3" stroke="#DDDDDD" stroke-width="1.5"/>
<path d="M1018.11 57.204H989.604V85.7193H1018.11V57.204Z" stroke="#DDDDDD" stroke-width="1.5"/>
<path d="M1046.62 57.204H1018.11V85.7193H1046.62V57.204Z" stroke="#DDDDDD" stroke-width="1.5"/>
<path d="M1075.12 57.204H1046.62V85.7193H1075.12V57.204Z" fill="#E2E7F0" fill-opacity="0.3" stroke="#DDDDDD" stroke-width="1.5"/>
<path d="M20.3835 85.7193H-8.12292V114.235H20.3835V85.7193Z" stroke="#DDDDDD" stroke-width="1.5"/>
<path d="M48.89 85.7193H20.3835V114.235H48.89V85.7193Z" fill="#E2E7F0" fill-opacity="0.3" stroke="#DDDDDD" stroke-width="1.5"/>
<path d="M77.3965 85.7193H48.89V114.235H77.3965V85.7193Z" stroke="#DDDDDD" stroke-width="1.5"/>
<path d="M191.422 85.7193H162.916V114.235H191.422V85.7193Z" fill="#E2E7F0" fill-opacity="0.3" stroke="#DDDDDD" stroke-width="1.5"/>
<path d="M219.929 85.7193H191.422V114.235H219.929V85.7193Z" stroke="#DDDDDD" stroke-width="1.5"/>
<path d="M276.942 85.7193H248.435V114.235H276.942V85.7193Z" stroke="#DDDDDD" stroke-width="1.5"/>
<path d="M790.058 85.7193H761.552V114.235H790.058V85.7193Z" stroke="#DDDDDD" stroke-width="1.5"/>
<path d="M818.565 85.7193H790.058V114.235H818.565V85.7193Z" stroke="#DDDDDD" stroke-width="1.5"/>
<path d="M904.084 85.7193H875.578V114.235H904.084V85.7193Z" stroke="#DDDDDD" stroke-width="1.5"/>
<path d="M932.591 85.7193H904.084V114.235H932.591V85.7193Z" stroke="#DDDDDD" stroke-width="1.5"/>
<path d="M961.097 85.7193H932.591V114.235H961.097V85.7193Z" stroke="#DDDDDD" stroke-width="1.5"/>
<path d="M1075.12 85.7193H1046.62V114.235H1075.12V85.7193Z" stroke="#DDDDDD" stroke-width="1.5"/>
<path d="M20.3835 114.235H-8.12292V142.75H20.3835V114.235Z" stroke="#DDDDDD" stroke-width="1.5"/>
<path d="M48.89 114.235H20.3835V142.75H48.89V114.235Z" stroke="#DDDDDD" stroke-width="1.5"/>
<path d="M77.3965 114.235H48.89V142.75H77.3965V114.235Z" stroke="#DDDDDD" stroke-width="1.5"/>
<path d="M105.903 114.235H77.3965V142.75H105.903V114.235Z" stroke="#DDDDDD" stroke-width="1.5"/>
<path d="M134.409 114.235H105.903V142.75H134.409V114.235Z" stroke="#DDDDDD" stroke-width="1.5"/>
<path d="M162.916 114.235H134.409V142.75H162.916V114.235Z" stroke="#DDDDDD" stroke-width="1.5"/>
<path d="M305.448 114.235H276.942V142.75H305.448V114.235Z" stroke="#DDDDDD" stroke-width="1.5"/>
<path d="M333.955 114.235H305.448V142.75H333.955V114.235Z" stroke="#DDDDDD" stroke-width="1.5"/>
<path d="M619.019 114.235H590.513V142.75H619.019V114.235Z" stroke="#DDDDDD" stroke-width="1.5"/>
<path d="M647.526 114.235H619.019V142.75H647.526V114.235Z" stroke="#DDDDDD" stroke-width="1.5"/>
<path d="M676.032 114.235H647.526V142.75H676.032V114.235Z" stroke="#DDDDDD" stroke-width="1.5"/>
<path d="M704.539 114.235H676.032V142.75H704.539V114.235Z" stroke="#DDDDDD" stroke-width="1.5"/>
<path d="M733.045 114.235H704.539V142.75H733.045V114.235Z" stroke="#DDDDDD" stroke-width="1.5"/>
<path d="M761.552 114.235H733.045V142.75H761.552V114.235Z" stroke="#DDDDDD" stroke-width="1.5"/>
<path d="M818.565 114.235H790.058V142.75H818.565V114.235Z" stroke="#DDDDDD" stroke-width="1.5"/>
<path d="M847.071 114.235H818.565V142.75H847.071V114.235Z" fill="#E2E7F0" fill-opacity="0.3" stroke="#DDDDDD" stroke-width="1.5"/>
<path d="M961.097 114.235H932.591V142.75H961.097V114.235Z" stroke="#DDDDDD" stroke-width="1.5"/>
<path d="M989.604 114.235H961.097V142.75H989.604V114.235Z" stroke="#DDDDDD" stroke-width="1.5"/>
<path d="M1018.11 114.235H989.604V142.75H1018.11V114.235Z" stroke="#DDDDDD" stroke-width="1.5"/>
<path d="M1046.62 114.235H1018.11V142.75H1046.62V114.235Z" stroke="#DDDDDD" stroke-width="1.5"/>
<path d="M1075.12 114.235H1046.62V142.75H1075.12V114.235Z" stroke="#DDDDDD" stroke-width="1.5"/>
<path d="M20.3835 142.75H-8.12292V171.265H20.3835V142.75Z" stroke="#DDDDDD" stroke-width="1.5"/>
<path d="M48.89 142.75H20.3835V171.265H48.89V142.75Z" stroke="#DDDDDD" stroke-width="1.5"/>
<path d="M77.3965 142.75H48.89V171.265H77.3965V142.75Z" stroke="#DDDDDD" stroke-width="1.5"/>
<path d="M105.903 142.75H77.3965V171.265H105.903V142.75Z" stroke="#DDDDDD" stroke-width="1.5"/>
<path d="M134.409 142.75H105.903V171.265H134.409V142.75Z" stroke="#DDDDDD" stroke-width="1.5"/>
<path d="M162.916 142.75H134.409V171.265H162.916V142.75Z" stroke="#DDDDDD" stroke-width="1.5"/>
<path d="M191.422 142.75H162.916V171.265H191.422V142.75Z" stroke="#DDDDDD" stroke-width="1.5"/>
<path d="M219.929 142.75H191.422V171.265H219.929V142.75Z" stroke="#DDDDDD" stroke-width="1.5"/>
<path d="M875.578 142.75H847.071V171.265H875.578V142.75Z" stroke="#DDDDDD" stroke-width="1.5"/>
<path d="M904.084 142.75H875.578V171.265H904.084V142.75Z" stroke="#DDDDDD" stroke-width="1.5"/>
<path d="M932.591 142.75H904.084V171.265H932.591V142.75Z" stroke="#DDDDDD" stroke-width="1.5"/>
<path d="M961.097 142.75H932.591V171.265H961.097V142.75Z" stroke="#DDDDDD" stroke-width="1.5"/>
<path d="M989.604 142.75H961.097V171.265H989.604V142.75Z" fill="#E2E7F0" fill-opacity="0.3" stroke="#DDDDDD" stroke-width="1.5"/>
<path d="M1018.11 142.75H989.604V171.265H1018.11V142.75Z" stroke="#DDDDDD" stroke-width="1.5"/>
<path d="M1046.62 142.75H1018.11V171.265H1046.62V142.75Z" stroke="#DDDDDD" stroke-width="1.5"/>
<path d="M1075.12 142.75H1046.62V171.265H1075.12V142.75Z" stroke="#DDDDDD" stroke-width="1.5"/>
<path d="M20.3835 171.265H-8.12292V199.781H20.3835V171.265Z" fill="#E2E7F0" fill-opacity="0.3" stroke="#DDDDDD" stroke-width="1.5"/>
<path d="M48.89 171.265H20.3835V199.781H48.89V171.265Z" stroke="#DDDDDD" stroke-width="1.5"/>
<path d="M77.3965 171.265H48.89V199.781H77.3965V171.265Z" stroke="#DDDDDD" stroke-width="1.5"/>
<path d="M191.422 171.265H162.916V199.781H191.422V171.265Z" fill="#E2E7F0" fill-opacity="0.3" stroke="#DDDDDD" stroke-width="1.5"/>
<path d="M219.929 171.265H191.422V199.781H219.929V171.265Z" stroke="#DDDDDD" stroke-width="1.5"/>
<path d="M276.942 171.265H248.435V199.781H276.942V171.265Z" stroke="#DDDDDD" stroke-width="1.5"/>
<path d="M305.448 171.265H276.942V199.781H305.448V171.265Z" stroke="#DDDDDD" stroke-width="1.5"/>
<path d="M847.071 171.265H818.565V199.781H847.071V171.265Z" stroke="#DDDDDD" stroke-width="1.5"/>
<path d="M875.578 171.265H847.071V199.781H875.578V171.265Z" fill="#E2E7F0" fill-opacity="0.3" stroke="#DDDDDD" stroke-width="1.5"/>
<path d="M904.084 171.265H875.578V199.781H904.084V171.265Z" stroke="#DDDDDD" stroke-width="1.5"/>
<path d="M932.591 171.265H904.084V199.781H932.591V171.265Z" stroke="#DDDDDD" stroke-width="1.5"/>
<path d="M961.097 171.265H932.591V199.781H961.097V171.265Z" stroke="#DDDDDD" stroke-width="1.5"/>
<path d="M1075.12 171.265H1046.62V199.781H1075.12V171.265Z" stroke="#DDDDDD" stroke-width="1.5"/>
<path d="M20.3835 199.781H-8.12292V228.296H20.3835V199.781Z" stroke="#DDDDDD" stroke-width="1.5"/>
<path d="M48.89 199.781H20.3835V228.296H48.89V199.781Z" stroke="#DDDDDD" stroke-width="1.5"/>
<path d="M77.3965 199.781H48.89V228.296H77.3965V199.781Z" stroke="#DDDDDD" stroke-width="1.5"/>
<path d="M105.903 199.781H77.3965V228.296H105.903V199.781Z" stroke="#DDDDDD" stroke-width="1.5"/>
<path d="M134.409 199.781H105.903V228.296H134.409V199.781Z" stroke="#DDDDDD" stroke-width="1.5"/>
<path d="M162.916 199.781H134.409V228.296H162.916V199.781Z" fill="#E2E7F0" fill-opacity="0.3" stroke="#DDDDDD" stroke-width="1.5"/>
<path d="M305.448 199.781H276.942V228.296H305.448V199.781Z" stroke="#DDDDDD" stroke-width="1.5"/>
<path d="M333.955 199.781H305.448V228.296H333.955V199.781Z" stroke="#DDDDDD" stroke-width="1.5"/>
<path d="M619.019 199.781H590.513V228.296H619.019V199.781Z" stroke="#DDDDDD" stroke-width="1.5"/>
<path d="M647.526 199.781H619.019V228.296H647.526V199.781Z" stroke="#DDDDDD" stroke-width="1.5"/>
<path d="M676.032 199.781H647.526V228.296H676.032V199.781Z" stroke="#DDDDDD" stroke-width="1.5"/>
<path d="M704.539 199.781H676.032V228.296H704.539V199.781Z" stroke="#DDDDDD" stroke-width="1.5"/>
<path d="M733.045 199.781H704.539V228.296H733.045V199.781Z" stroke="#DDDDDD" stroke-width="1.5"/>
<path d="M761.552 199.781H733.045V228.296H761.552V199.781Z" stroke="#DDDDDD" stroke-width="1.5"/>
<path d="M790.058 199.781H761.552V228.296H790.058V199.781Z" stroke="#DDDDDD" stroke-width="1.5"/>
<path d="M818.565 199.781H790.058V228.296H818.565V199.781Z" stroke="#DDDDDD" stroke-width="1.5"/>
<path d="M989.604 199.781H961.097V228.296H989.604V199.781Z" stroke="#DDDDDD" stroke-width="1.5"/>
<path d="M1018.11 199.781H989.604V228.296H1018.11V199.781Z" stroke="#DDDDDD" stroke-width="1.5"/>
<path d="M1046.62 199.781H1018.11V228.296H1046.62V199.781Z" stroke="#DDDDDD" stroke-width="1.5"/>
<path d="M1075.12 199.781H1046.62V228.296H1075.12V199.781Z" stroke="#DDDDDD" stroke-width="1.5"/>
<path d="M20.3835 228.296H-8.12292V256.811H20.3835V228.296Z" stroke="#DDDDDD" stroke-width="1.5"/>
<path d="M48.89 228.296H20.3835V256.811H48.89V228.296Z" stroke="#DDDDDD" stroke-width="1.5"/>
<path d="M77.3965 228.296H48.89V256.811H77.3965V228.296Z" stroke="#DDDDDD" stroke-width="1.5"/>
<path d="M105.903 228.296H77.3965V256.811H105.903V228.296Z" fill="#E2E7F0" fill-opacity="0.3" stroke="#DDDDDD" stroke-width="1.5"/>
<path d="M134.409 228.296H105.903V256.811H134.409V228.296Z" stroke="#DDDDDD" stroke-width="1.5"/>
<path d="M162.916 228.296H134.409V256.811H162.916V228.296Z" stroke="#DDDDDD" stroke-width="1.5"/>
<path d="M191.422 228.296H162.916V256.811H191.422V228.296Z" stroke="#DDDDDD" stroke-width="1.5"/>
<path d="M219.929 228.296H191.422V256.811H219.929V228.296Z" stroke="#DDDDDD" stroke-width="1.5"/>
<path d="M305.448 228.296H276.942V256.811H305.448V228.296Z" stroke="#DDDDDD" stroke-width="1.5"/>
<path d="M818.565 228.296H790.058V256.811H818.565V228.296Z" stroke="#DDDDDD" stroke-width="1.5"/>
<path d="M847.071 228.296H818.565V256.811H847.071V228.296Z" stroke="#DDDDDD" stroke-width="1.5"/>
<path d="M989.604 228.296H961.097V256.811H989.604V228.296Z" stroke="#DDDDDD" stroke-width="1.5"/>
<path d="M1018.11 228.296H989.604V256.811H1018.11V228.296Z" stroke="#DDDDDD" stroke-width="1.5"/>
<path d="M1046.62 228.296H1018.11V256.811H1046.62V228.296Z" fill="#E2E7F0" fill-opacity="0.3" stroke="#DDDDDD" stroke-width="1.5"/>
<path d="M1075.12 228.296H1046.62V256.811H1075.12V228.296Z" stroke="#DDDDDD" stroke-width="1.5"/>
<path d="M20.3835 256.811H-8.12292V285.327H20.3835V256.811Z" stroke="#DDDDDD" stroke-width="1.5"/>
<path d="M105.903 256.811H77.3965V285.327H105.903V256.811Z" stroke="#DDDDDD" stroke-width="1.5"/>
<path d="M191.422 256.811H162.916V285.327H191.422V256.811Z" stroke="#DDDDDD" stroke-width="1.5"/>
<path d="M219.929 256.811H191.422V285.327H219.929V256.811Z" fill="#E2E7F0" fill-opacity="0.3" stroke="#DDDDDD" stroke-width="1.5"/>
<path d="M333.955 256.811H305.448V285.327H333.955V256.811Z" stroke="#DDDDDD" stroke-width="1.5"/>
<path d="M362.461 256.811H333.955V285.327H362.461V256.811Z" stroke="#DDDDDD" stroke-width="1.5"/>
<path d="M390.968 256.811H362.461V285.327H390.968V256.811Z" stroke="#DDDDDD" stroke-width="1.5"/>
<path d="M419.474 256.811H390.968V285.327H419.474V256.811Z" fill="#E2E7F0" fill-opacity="0.3" stroke="#DDDDDD" stroke-width="1.5"/>
<path d="M447.981 256.811H419.474V285.327H447.981V256.811Z" stroke="#DDDDDD" stroke-width="1.5"/>
<path d="M476.487 256.811H447.981V285.327H476.487V256.811Z" stroke="#DDDDDD" stroke-width="1.5"/>
<path d="M790.058 256.811H761.552V285.327H790.058V256.811Z" stroke="#DDDDDD" stroke-width="1.5"/>
<path opacity="0.99" d="M818.565 256.811H790.058V285.327H818.565V256.811Z" stroke="#DDDDDD" stroke-width="1.5"/>
<path d="M904.084 256.811H875.578V285.327H904.084V256.811Z" stroke="#DDDDDD" stroke-width="1.5"/>
<path d="M932.591 256.811H904.084V285.327H932.591V256.811Z" stroke="#DDDDDD" stroke-width="1.5"/>
<path d="M961.097 256.811H932.591V285.327H961.097V256.811Z" stroke="#DDDDDD" stroke-width="1.5"/>
<path d="M1075.12 256.811H1046.62V285.327H1075.12V256.811Z" stroke="#DDDDDD" stroke-width="1.5"/>
<path d="M20.3835 285.327H-8.12292V313.842H20.3835V285.327Z" stroke="#DDDDDD" stroke-width="1.5"/>
<path d="M48.89 285.327H20.3835V313.842H48.89V285.327Z" stroke="#DDDDDD" stroke-width="1.5"/>
<path d="M77.3965 285.327H48.89V313.842H77.3965V285.327Z" stroke="#DDDDDD" stroke-width="1.5"/>
<path d="M105.903 285.327H77.3965V313.842H105.903V285.327Z" stroke="#DDDDDD" stroke-width="1.5"/>
<path d="M134.409 285.327H105.903V313.842H134.409V285.327Z" stroke="#DDDDDD" stroke-width="1.5"/>
<path d="M419.474 285.327H390.968V313.842H419.474V285.327Z" stroke="#DDDDDD" stroke-width="1.5"/>
<path d="M447.981 285.327H419.474V313.842H447.981V285.327Z" stroke="#DDDDDD" stroke-width="1.5"/>
<path d="M476.487 285.327H447.981V313.842H476.487V285.327Z" stroke="#DDDDDD" stroke-width="1.5"/>
<path d="M676.032 285.327H647.526V313.842H676.032V285.327Z" stroke="#DDDDDD" stroke-width="1.5"/>
<path d="M704.539 285.327H676.032V313.842H704.539V285.327Z" stroke="#DDDDDD" stroke-width="1.5"/>
<path d="M733.045 285.327H704.539V313.842H733.045V285.327Z" stroke="#DDDDDD" stroke-width="1.5"/>
<path d="M761.552 285.327H733.045V313.842H761.552V285.327Z" stroke="#DDDDDD" stroke-width="1.5"/>
<path d="M790.058 285.327H761.552V313.842H790.058V285.327Z" fill="#E2E7F0" fill-opacity="0.3" stroke="#DDDDDD" stroke-width="1.5"/>
<path d="M818.565 285.327H790.058V313.842H818.565V285.327Z" stroke="#DDDDDD" stroke-width="1.5"/>
<path d="M847.071 285.327H818.565V313.842H847.071V285.327Z" stroke="#DDDDDD" stroke-width="1.5"/>
<path d="M904.084 285.327H875.578V313.842H904.084V285.327Z" stroke="#DDDDDD" stroke-width="1.5"/>
<path d="M932.591 285.327H904.084V313.842H932.591V285.327Z" stroke="#DDDDDD" stroke-width="1.5"/>
<path d="M961.097 285.327H932.591V313.842H961.097V285.327Z" stroke="#DDDDDD" stroke-width="1.5"/>
<path d="M989.604 285.327H961.097V313.842H989.604V285.327Z" fill="#E2E7F0" fill-opacity="0.3" stroke="#DDDDDD" stroke-width="1.5"/>
<path d="M1018.11 285.327H989.604V313.842H1018.11V285.327Z" stroke="#DDDDDD" stroke-width="1.5"/>
<path d="M1046.62 285.327H1018.11V313.842H1046.62V285.327Z" stroke="#DDDDDD" stroke-width="1.5"/>
<path d="M1075.12 285.327H1046.62V313.842H1075.12V285.327Z" stroke="#DDDDDD" stroke-width="1.5"/>
<path d="M20.3835 313.842H-8.12292V342.357H20.3835V313.842Z" stroke="#DDDDDD" stroke-width="1.5"/>
<path d="M48.89 313.842H20.3835V342.357H48.89V313.842Z" stroke="#DDDDDD" stroke-width="1.5"/>
<path d="M77.3965 313.842H48.89V342.357H77.3965V313.842Z" fill="#E2E7F0" fill-opacity="0.3" stroke="#DDDDDD" stroke-width="1.5"/>
<path d="M105.903 313.842H77.3965V342.357H105.903V313.842Z" stroke="#DDDDDD" stroke-width="1.5"/>
<path d="M134.409 313.842H105.903V342.357H134.409V313.842Z" stroke="#DDDDDD" stroke-width="1.5"/>
<path d="M162.916 313.842H134.409V342.357H162.916V313.842Z" stroke="#DDDDDD" stroke-width="1.5"/>
<path d="M191.422 313.842H162.916V342.357H191.422V313.842Z" stroke="#DDDDDD" stroke-width="1.5"/>
<path d="M219.929 313.842H191.422V342.357H219.929V313.842Z" stroke="#DDDDDD" stroke-width="1.5"/>
<path d="M248.435 313.842H219.929V342.357H248.435V313.842Z" stroke="#DDDDDD" stroke-width="1.5"/>
<path d="M276.942 313.842H248.435V342.357H276.942V313.842Z" stroke="#DDDDDD" stroke-width="1.5"/>
<path d="M305.448 313.842H276.942V342.357H305.448V313.842Z" stroke="#DDDDDD" stroke-width="1.5"/>
<path d="M333.955 313.842H305.448V342.357H333.955V313.842Z" stroke="#DDDDDD" stroke-width="1.5"/>
<path d="M362.461 313.842H333.955V342.357H362.461V313.842Z" fill="#E2E7F0" fill-opacity="0.3" stroke="#DDDDDD" stroke-width="1.5"/>
<path d="M619.019 313.842H590.513V342.357H619.019V313.842Z" stroke="#DDDDDD" stroke-width="1.5"/>
<path d="M647.526 313.842H619.019V342.357H647.526V313.842Z" stroke="#DDDDDD" stroke-width="1.5"/>
<path d="M676.032 313.842H647.526V342.357H676.032V313.842Z" stroke="#DDDDDD" stroke-width="1.5"/>
<path d="M704.539 313.842H676.032V342.357H704.539V313.842Z" stroke="#DDDDDD" stroke-width="1.5"/>
<path d="M733.045 313.842H704.539V342.357H733.045V313.842Z" fill="#E2E7F0" fill-opacity="0.3" stroke="#DDDDDD" stroke-width="1.5"/>
<path d="M761.552 313.842H733.045V342.357H761.552V313.842Z" stroke="#DDDDDD" stroke-width="1.5"/>
<path d="M790.058 313.842H761.552V342.357H790.058V313.842Z" stroke="#DDDDDD" stroke-width="1.5"/>
<path d="M818.565 313.842H790.058V342.357H818.565V313.842Z" stroke="#DDDDDD" stroke-width="1.5"/>
<path d="M847.071 313.842H818.565V342.357H847.071V313.842Z" stroke="#DDDDDD" stroke-width="1.5"/>
<path d="M875.578 313.842H847.071V342.357H875.578V313.842Z" stroke="#DDDDDD" stroke-width="1.5"/>
<path d="M904.084 313.842H875.578V342.357H904.084V313.842Z" stroke="#DDDDDD" stroke-width="1.5"/>
<path d="M932.591 313.842H904.084V342.357H932.591V313.842Z" stroke="#DDDDDD" stroke-width="1.5"/>
<path d="M961.097 313.842H932.591V342.357H961.097V313.842Z" stroke="#DDDDDD" stroke-width="1.5"/>
<path d="M989.604 313.842H961.097V342.357H989.604V313.842Z" stroke="#DDDDDD" stroke-width="1.5"/>
<path d="M1018.11 313.842H989.604V342.357H1018.11V313.842Z" stroke="#DDDDDD" stroke-width="1.5"/>
<path d="M1046.62 313.842H1018.11V342.357H1046.62V313.842Z" stroke="#DDDDDD" stroke-width="1.5"/>
<path d="M1075.12 313.842H1046.62V342.357H1075.12V313.842Z" stroke="#DDDDDD" stroke-width="1.5"/>
<path d="M20.3835 342.357H-8.12292V370.873H20.3835V342.357Z" stroke="#DDDDDD" stroke-width="1.5"/>
<path d="M48.89 342.357H20.3835V370.873H48.89V342.357Z" stroke="#DDDDDD" stroke-width="1.5"/>
<path d="M77.3965 342.357H48.89V370.873H77.3965V342.357Z" stroke="#DDDDDD" stroke-width="1.5"/>
<path d="M105.903 342.357H77.3965V370.873H105.903V342.357Z" stroke="#DDDDDD" stroke-width="1.5"/>
<path d="M134.409 342.357H105.903V370.873H134.409V342.357Z" stroke="#DDDDDD" stroke-width="1.5"/>
<path d="M162.916 342.357H134.409V370.873H162.916V342.357Z" fill="#E2E7F0" fill-opacity="0.3" stroke="#DDDDDD" stroke-width="1.5"/>
<path d="M305.448 342.357H276.942V370.873H305.448V342.357Z" stroke="#DDDDDD" stroke-width="1.5"/>
<path d="M333.955 342.357H305.448V370.873H333.955V342.357Z" stroke="#DDDDDD" stroke-width="1.5"/>
<path d="M619.019 342.357H590.513V370.873H619.019V342.357Z" stroke="#DDDDDD" stroke-width="1.5"/>
<path d="M647.526 342.357H619.019V370.873H647.526V342.357Z" stroke="#DDDDDD" stroke-width="1.5"/>
<path d="M676.032 342.357H647.526V370.873H676.032V342.357Z" stroke="#DDDDDD" stroke-width="1.5"/>
<path d="M704.539 342.357H676.032V370.873H704.539V342.357Z" stroke="#DDDDDD" stroke-width="1.5"/>
<path d="M733.045 342.357H704.539V370.873H733.045V342.357Z" stroke="#DDDDDD" stroke-width="1.5"/>
<path d="M761.552 342.357H733.045V370.873H761.552V342.357Z" stroke="#DDDDDD" stroke-width="1.5"/>
<path d="M790.058 342.357H761.552V370.873H790.058V342.357Z" stroke="#DDDDDD" stroke-width="1.5"/>
<path d="M818.565 342.357H790.058V370.873H818.565V342.357Z" stroke="#DDDDDD" stroke-width="1.5"/>
<path d="M989.604 342.357H961.097V370.873H989.604V342.357Z" stroke="#DDDDDD" stroke-width="1.5"/>
<path d="M1018.11 342.357H989.604V370.873H1018.11V342.357Z" stroke="#DDDDDD" stroke-width="1.5"/>
<path d="M1046.62 342.357H1018.11V370.873H1046.62V342.357Z" stroke="#DDDDDD" stroke-width="1.5"/>
<path d="M1075.12 342.357H1046.62V370.873H1075.12V342.357Z" stroke="#DDDDDD" stroke-width="1.5"/>
<path d="M20.3835 370.873H-8.12292V399.388H20.3835V370.873Z" stroke="#DDDDDD" stroke-width="1.5"/>
<path d="M48.89 370.873H20.3835V399.388H48.89V370.873Z" stroke="#DDDDDD" stroke-width="1.5"/>
<path d="M77.3965 370.873H48.89V399.388H77.3965V370.873Z" stroke="#DDDDDD" stroke-width="1.5"/>
<path d="M105.903 370.873H77.3965V399.388H105.903V370.873Z" stroke="#DDDDDD" stroke-width="1.5"/>
<path d="M134.409 370.873H105.903V399.388H134.409V370.873Z" stroke="#DDDDDD" stroke-width="1.5"/>
<path d="M162.916 370.873H134.409V399.388H162.916V370.873Z" stroke="#DDDDDD" stroke-width="1.5"/>
<path d="M191.422 370.873H162.916V399.388H191.422V370.873Z" stroke="#DDDDDD" stroke-width="1.5"/>
<path d="M219.929 370.873H191.422V399.388H219.929V370.873Z" stroke="#DDDDDD" stroke-width="1.5"/>
<path d="M276.942 370.873H248.435V399.388H276.942V370.873Z" stroke="#DDDDDD" stroke-width="1.5"/>
<path d="M305.448 370.873H276.942V399.388H305.448V370.873Z" stroke="#DDDDDD" stroke-width="1.5"/>
<path d="M333.955 370.873H305.448V399.388H333.955V370.873Z" stroke="#DDDDDD" stroke-width="1.5"/>
<path d="M362.461 370.873H333.955V399.388H362.461V370.873Z" stroke="#DDDDDD" stroke-width="1.5"/>
<path d="M562.006 370.873H533.5V399.388H562.006V370.873Z" stroke="#DDDDDD" stroke-width="1.5"/>
<path d="M590.513 370.873H562.006V399.388H590.513V370.873Z" stroke="#DDDDDD" stroke-width="1.5"/>
<path d="M619.019 370.873H590.513V399.388H619.019V370.873Z" stroke="#DDDDDD" stroke-width="1.5"/>
<path d="M647.526 370.873H619.019V399.388H647.526V370.873Z" stroke="#DDDDDD" stroke-width="1.5"/>
<path d="M676.032 370.873H647.526V399.388H676.032V370.873Z" stroke="#DDDDDD" stroke-width="1.5"/>
<path d="M704.539 370.873H676.032V399.388H704.539V370.873Z" stroke="#DDDDDD" stroke-width="1.5"/>
<path d="M733.045 370.873H704.539V399.388H733.045V370.873Z" stroke="#DDDDDD" stroke-width="1.5"/>
<path d="M790.058 370.873H761.552V399.388H790.058V370.873Z" stroke="#DDDDDD" stroke-width="1.5"/>
<path d="M847.071 370.873H818.565V399.388H847.071V370.873Z" fill="#E2E7F0" fill-opacity="0.3" stroke="#DDDDDD" stroke-width="1.5"/>
<path d="M875.578 370.873H847.071V399.388H875.578V370.873Z" stroke="#DDDDDD" stroke-width="1.5"/>
<path d="M1046.62 370.873H1018.11V399.388H1046.62V370.873Z" stroke="#DDDDDD" stroke-width="1.5"/>
<path d="M1075.12 370.873H1046.62V399.388H1075.12V370.873Z" fill="#E2E7F0" fill-opacity="0.3" stroke="#DDDDDD" stroke-width="1.5"/>
<path d="M20.3835 427.903V399.388H-8.12292V427.903" stroke="#DDDDDD" stroke-width="1.5"/>
<path d="M48.89 427.903V399.388H20.3835V427.903" stroke="#DDDDDD" stroke-width="1.5"/>
<path d="M77.3965 427.903V399.388H48.89V427.903" stroke="#DDDDDD" stroke-width="1.5"/>
<path d="M105.903 427.903V399.388H77.3965V427.903" stroke="#DDDDDD" stroke-width="1.5"/>
<path d="M134.409 427.903V399.388H105.903V427.903" stroke="#DDDDDD" stroke-width="1.5"/>
<path d="M162.916 427.903V399.388H134.409V427.903" stroke="#DDDDDD" stroke-width="1.5"/>
<path d="M333.955 427.903V399.388H305.448V427.903" stroke="#DDDDDD" stroke-width="1.5"/>
<path d="M362.461 427.903V399.388H333.955V427.903" stroke="#DDDDDD" stroke-width="1.5"/>
<path d="M390.968 427.903V399.388H362.461V427.903" stroke="#DDDDDD" stroke-width="1.5"/>
<path d="M419.474 427.903V399.388H390.968V427.903" stroke="#DDDDDD" stroke-width="1.5"/>
<path d="M447.981 427.903V399.388H419.474V427.903" stroke="#DDDDDD" stroke-width="1.5"/>
<path d="M476.487 427.903V399.388H447.981V427.903" stroke="#DDDDDD" stroke-width="1.5"/>
<path d="M904.084 427.903V399.388H875.578V427.903" stroke="#DDDDDD" stroke-width="1.5"/>
<path d="M932.591 427.903V399.388H904.084V427.903" stroke="#DDDDDD" stroke-width="1.5"/>
<path d="M961.097 427.903V399.388H932.591V427.903" stroke="#DDDDDD" stroke-width="1.5"/>
<path d="M989.604 427.903V399.388H961.097V427.903" stroke="#DDDDDD" stroke-width="1.5"/>
<path d="M1018.11 427.903V399.388H989.604V427.903" stroke="#DDDDDD" stroke-width="1.5"/>
<path d="M1046.62 427.903V399.388H1018.11V427.903" stroke="#DDDDDD" stroke-width="1.5"/>
<path d="M1075.12 427.903V399.388H1046.62V427.903" stroke="#DDDDDD" stroke-width="1.5"/>
<path d="M20.4713 116.428L20.4713 169.072" stroke="url(#paint0_linear_81_3)" stroke-width="1.5" stroke-linecap="round" stroke-linejoin="round"/>
<g filter="url(#filter0_d_81_3)">
<path d="M932.591 177.407V124.763" stroke="url(#paint1_linear_81_3)" stroke-width="1.5" stroke-linecap="round" stroke-linejoin="round"/>
<path d="M162.916 200V147.356" stroke="url(#paint2_linear_81_3)" stroke-width="1.5" stroke-linecap="round" stroke-linejoin="round"/>
<path d="M219.994 58.3961L219.994 111.04" stroke="url(#paint3_linear_81_3)" stroke-width="1.5" stroke-linecap="round" stroke-linejoin="round"/>
<path d="M790.091 58.3961L790.091 111.04" stroke="url(#paint4_linear_81_3)" stroke-width="1.5" stroke-linecap="round" stroke-linejoin="round"/>
</g>
<rect x="263.989" width="539.022" height="399.388" fill="url(#paint5_radial_81_3)"/>
</g>
<path d="M88.5123 347.348L79.947 332.539C79.5543 331.859 78.5864 331.302 77.7963 331.302H72.4488C71.2059 331.302 70.6963 330.427 71.3163 329.358L74.2488 324.301C74.4815 323.9 74.481 323.406 74.2475 323.005C74.0139 322.604 73.5828 322.357 73.1163 322.357H65.6565C64.8663 322.357 63.8963 322.913 63.5008 323.592L49.0052 348.488C48.6098 349.167 48.6095 350.279 49.0047 350.958L52.7345 357.37C53.3559 358.439 54.3751 358.44 54.9992 357.373L57.9137 352.391C58.5378 351.324 59.557 351.326 60.1784 352.394L62.8206 356.936C63.2157 357.616 64.1854 358.171 64.9756 358.171H82.2135C83.0038 358.171 83.9735 357.616 84.3686 356.936L88.508 349.82C88.9031 349.141 88.905 348.028 88.5123 347.348ZM76.9449 346.635C77.5624 347.706 77.0508 348.582 75.8079 348.582H62.3996C61.1567 348.582 60.6482 347.707 61.2696 346.639L67.9791 335.104C68.6005 334.036 69.6174 334.036 70.2388 335.104L76.9449 346.635Z" fill="#20294F"/>
<path d="M246.937 181.614C244.431 181.614 242.215 181.205 240.289 180.386C238.38 179.551 236.88 178.29 235.789 176.602C234.698 174.915 234.153 172.767 234.153 170.159C234.153 168.011 234.519 166.179 235.252 164.662C235.985 163.128 237.008 161.875 238.32 160.903C239.633 159.932 241.158 159.19 242.897 158.679C244.653 158.168 246.545 157.835 248.573 157.682C250.772 157.511 252.536 157.307 253.866 157.068C255.212 156.812 256.184 156.463 256.781 156.02C257.377 155.56 257.675 154.955 257.675 154.205V154.102C257.675 153.08 257.283 152.295 256.499 151.75C255.715 151.205 254.71 150.932 253.482 150.932C252.136 150.932 251.036 151.23 250.184 151.827C249.349 152.406 248.846 153.301 248.675 154.511H235.687C235.857 152.125 236.616 149.926 237.962 147.915C239.326 145.886 241.312 144.267 243.92 143.057C246.528 141.83 249.783 141.216 253.687 141.216C256.499 141.216 259.022 141.548 261.255 142.213C263.488 142.861 265.388 143.773 266.957 144.949C268.525 146.108 269.718 147.472 270.536 149.04C271.371 150.591 271.789 152.278 271.789 154.102V181H258.596V175.477H258.289C257.505 176.943 256.55 178.128 255.425 179.031C254.317 179.935 253.048 180.591 251.616 181C250.201 181.409 248.641 181.614 246.937 181.614ZM251.539 172.716C252.613 172.716 253.619 172.494 254.556 172.051C255.511 171.608 256.286 170.969 256.883 170.134C257.479 169.298 257.778 168.284 257.778 167.091V163.818C257.403 163.972 257.002 164.116 256.576 164.253C256.167 164.389 255.724 164.517 255.246 164.636C254.786 164.756 254.292 164.866 253.763 164.969C253.252 165.071 252.715 165.165 252.153 165.25C251.062 165.42 250.167 165.702 249.468 166.094C248.786 166.469 248.275 166.938 247.934 167.5C247.61 168.045 247.448 168.659 247.448 169.341C247.448 170.432 247.832 171.267 248.599 171.847C249.366 172.426 250.346 172.716 251.539 172.716ZM285.487 181L275.669 141.727H289.783L294.283 165.659H294.589L299.601 141.727H313.305L318.521 165.455H318.828L323.124 141.727H337.237L327.419 181H312.18L306.658 159.932H306.249L300.726 181H285.487ZM359.648 181.716C355.455 181.716 351.841 180.915 348.807 179.312C345.79 177.693 343.463 175.375 341.827 172.358C340.207 169.324 339.398 165.693 339.398 161.466C339.398 157.409 340.216 153.864 341.852 150.83C343.489 147.795 345.798 145.435 348.781 143.747C351.764 142.06 355.284 141.216 359.341 141.216C362.307 141.216 364.991 141.676 367.395 142.597C369.798 143.517 371.852 144.855 373.557 146.611C375.261 148.349 376.574 150.463 377.494 152.952C378.415 155.44 378.875 158.244 378.875 161.364V164.636H343.795V156.864H365.886C365.869 155.739 365.58 154.75 365.017 153.898C364.472 153.028 363.73 152.355 362.793 151.878C361.872 151.384 360.824 151.136 359.648 151.136C358.506 151.136 357.457 151.384 356.503 151.878C355.548 152.355 354.781 153.02 354.202 153.872C353.639 154.724 353.341 155.722 353.307 156.864V165.25C353.307 166.511 353.571 167.636 354.099 168.625C354.628 169.614 355.386 170.389 356.375 170.952C357.364 171.514 358.557 171.795 359.955 171.795C360.926 171.795 361.813 171.659 362.614 171.386C363.432 171.114 364.131 170.722 364.71 170.21C365.29 169.682 365.716 169.051 365.989 168.318H378.875C378.432 171.045 377.384 173.415 375.73 175.426C374.077 177.42 371.886 178.972 369.159 180.08C366.449 181.17 363.278 181.716 359.648 181.716ZM420.532 154.511H407.543C407.475 153.71 407.194 153.02 406.7 152.44C406.205 151.861 405.566 151.418 404.782 151.111C404.015 150.787 403.163 150.625 402.225 150.625C401.015 150.625 399.975 150.847 399.106 151.29C398.237 151.733 397.81 152.364 397.827 153.182C397.81 153.761 398.058 154.298 398.569 154.793C399.097 155.287 400.112 155.67 401.612 155.943L409.589 157.375C413.612 158.108 416.603 159.344 418.563 161.082C420.54 162.804 421.538 165.114 421.555 168.011C421.538 170.807 420.702 173.236 419.049 175.298C417.413 177.344 415.171 178.929 412.325 180.054C409.495 181.162 406.265 181.716 402.634 181.716C396.634 181.716 391.938 180.489 388.546 178.034C385.171 175.58 383.288 172.341 382.896 168.318H396.907C397.094 169.562 397.708 170.526 398.748 171.207C399.805 171.872 401.134 172.205 402.737 172.205C404.032 172.205 405.097 171.983 405.933 171.54C406.785 171.097 407.219 170.466 407.237 169.648C407.219 168.898 406.844 168.301 406.112 167.858C405.396 167.415 404.271 167.057 402.737 166.784L395.782 165.557C391.776 164.858 388.776 163.528 386.782 161.568C384.788 159.608 383.799 157.085 383.816 154C383.799 151.273 384.515 148.963 385.964 147.071C387.43 145.162 389.518 143.713 392.228 142.724C394.955 141.719 398.185 141.216 401.918 141.216C407.594 141.216 412.069 142.392 415.342 144.744C418.631 147.097 420.362 150.352 420.532 154.511ZM445.883 181.716C441.621 181.716 437.974 180.872 434.94 179.185C431.906 177.48 429.579 175.111 427.96 172.077C426.34 169.026 425.531 165.489 425.531 161.466C425.531 157.443 426.34 153.915 427.96 150.881C429.579 147.83 431.906 145.46 434.94 143.773C437.974 142.068 441.621 141.216 445.883 141.216C450.144 141.216 453.792 142.068 456.826 143.773C459.86 145.46 462.187 147.83 463.806 150.881C465.425 153.915 466.235 157.443 466.235 161.466C466.235 165.489 465.425 169.026 463.806 172.077C462.187 175.111 459.86 177.48 456.826 179.185C453.792 180.872 450.144 181.716 445.883 181.716ZM445.985 171.284C447.178 171.284 448.21 170.884 449.079 170.082C449.948 169.281 450.621 168.139 451.099 166.656C451.576 165.173 451.815 163.409 451.815 161.364C451.815 159.301 451.576 157.537 451.099 156.071C450.621 154.588 449.948 153.446 449.079 152.645C448.21 151.844 447.178 151.443 445.985 151.443C444.724 151.443 443.641 151.844 442.738 152.645C441.835 153.446 441.144 154.588 440.667 156.071C440.19 157.537 439.951 159.301 439.951 161.364C439.951 163.409 440.19 165.173 440.667 166.656C441.144 168.139 441.835 169.281 442.738 170.082C443.641 170.884 444.724 171.284 445.985 171.284ZM471.962 181V141.727H485.36V149.193H485.769C486.587 146.739 487.985 144.795 489.962 143.364C491.94 141.932 494.292 141.216 497.019 141.216C499.781 141.216 502.158 141.949 504.153 143.415C506.147 144.864 507.349 146.79 507.758 149.193H508.167C508.832 146.79 510.246 144.864 512.411 143.415C514.576 141.949 517.116 141.216 520.031 141.216C523.798 141.216 526.849 142.426 529.184 144.847C531.536 147.267 532.712 150.489 532.712 154.511V181H518.599V158.091C518.599 156.369 518.164 155.023 517.295 154.051C516.425 153.062 515.258 152.568 513.792 152.568C512.343 152.568 511.192 153.062 510.34 154.051C509.505 155.023 509.087 156.369 509.087 158.091V181H495.587V158.091C495.587 156.369 495.153 155.023 494.283 154.051C493.414 153.062 492.246 152.568 490.781 152.568C489.809 152.568 488.974 152.79 488.275 153.233C487.576 153.676 487.031 154.315 486.638 155.151C486.263 155.969 486.076 156.949 486.076 158.091V181H471.962ZM558.491 181.716C554.298 181.716 550.685 180.915 547.651 179.312C544.634 177.693 542.307 175.375 540.67 172.358C539.051 169.324 538.241 165.693 538.241 161.466C538.241 157.409 539.06 153.864 540.696 150.83C542.332 147.795 544.642 145.435 547.625 143.747C550.608 142.06 554.128 141.216 558.185 141.216C561.151 141.216 563.835 141.676 566.239 142.597C568.642 143.517 570.696 144.855 572.401 146.611C574.105 148.349 575.418 150.463 576.338 152.952C577.259 155.44 577.719 158.244 577.719 161.364V164.636H542.639V156.864H564.73C564.713 155.739 564.423 154.75 563.861 153.898C563.315 153.028 562.574 152.355 561.636 151.878C560.716 151.384 559.668 151.136 558.491 151.136C557.349 151.136 556.301 151.384 555.347 151.878C554.392 152.355 553.625 153.02 553.045 153.872C552.483 154.724 552.185 155.722 552.151 156.864V165.25C552.151 166.511 552.415 167.636 552.943 168.625C553.472 169.614 554.23 170.389 555.219 170.952C556.207 171.514 557.401 171.795 558.798 171.795C559.77 171.795 560.656 171.659 561.457 171.386C562.276 171.114 562.974 170.722 563.554 170.21C564.134 169.682 564.56 169.051 564.832 168.318H577.719C577.276 171.045 576.227 173.415 574.574 175.426C572.92 177.42 570.73 178.972 568.003 180.08C565.293 181.17 562.122 181.716 558.491 181.716ZM609.251 154.818V165.455H584.705V154.818H609.251ZM628.593 181.614C626.087 181.614 623.871 181.205 621.945 180.386C620.036 179.551 618.536 178.29 617.445 176.602C616.354 174.915 615.809 172.767 615.809 170.159C615.809 168.011 616.175 166.179 616.908 164.662C617.641 163.128 618.664 161.875 619.977 160.903C621.289 159.932 622.815 159.19 624.553 158.679C626.309 158.168 628.201 157.835 630.229 157.682C632.428 157.511 634.192 157.307 635.522 157.068C636.869 156.812 637.84 156.463 638.437 156.02C639.033 155.56 639.332 154.955 639.332 154.205V154.102C639.332 153.08 638.94 152.295 638.156 151.75C637.371 151.205 636.366 150.932 635.138 150.932C633.792 150.932 632.692 151.23 631.84 151.827C631.005 152.406 630.502 153.301 630.332 154.511H617.343C617.513 152.125 618.272 149.926 619.619 147.915C620.982 145.886 622.968 144.267 625.576 143.057C628.184 141.83 631.44 141.216 635.343 141.216C638.156 141.216 640.678 141.548 642.911 142.213C645.144 142.861 647.045 143.773 648.613 144.949C650.181 146.108 651.374 147.472 652.192 149.04C653.028 150.591 653.445 152.278 653.445 154.102V181H640.252V175.477H639.945C639.161 176.943 638.207 178.128 637.082 179.031C635.974 179.935 634.704 180.591 633.272 181C631.857 181.409 630.298 181.614 628.593 181.614ZM633.195 172.716C634.269 172.716 635.275 172.494 636.212 172.051C637.167 171.608 637.942 170.969 638.539 170.134C639.136 169.298 639.434 168.284 639.434 167.091V163.818C639.059 163.972 638.658 164.116 638.232 164.253C637.823 164.389 637.38 164.517 636.903 164.636C636.442 164.756 635.948 164.866 635.42 164.969C634.908 165.071 634.371 165.165 633.809 165.25C632.718 165.42 631.823 165.702 631.124 166.094C630.442 166.469 629.931 166.938 629.59 167.5C629.266 168.045 629.104 168.659 629.104 169.341C629.104 170.432 629.488 171.267 630.255 171.847C631.022 172.426 632.002 172.716 633.195 172.716ZM672.359 141.727L678.087 153.898L684.121 141.727H698.132L687.598 161.364L698.643 181H684.734L678.087 168.523L671.643 181H657.53L668.678 161.364L658.246 141.727H672.359ZM703.15 181V141.727H717.263V181H703.15ZM710.207 137.636C708.298 137.636 706.661 137.006 705.298 135.744C703.934 134.483 703.252 132.966 703.252 131.193C703.252 129.42 703.934 127.903 705.298 126.642C706.661 125.381 708.298 124.75 710.207 124.75C712.133 124.75 713.769 125.381 715.116 126.642C716.479 127.903 717.161 129.42 717.161 131.193C717.161 132.966 716.479 134.483 715.116 135.744C713.769 137.006 712.133 137.636 710.207 137.636ZM743.375 181.716C739.114 181.716 735.466 180.872 732.432 179.185C729.398 177.48 727.071 175.111 725.452 172.077C723.832 169.026 723.023 165.489 723.023 161.466C723.023 157.443 723.832 153.915 725.452 150.881C727.071 147.83 729.398 145.46 732.432 143.773C735.466 142.068 739.114 141.216 743.375 141.216C747.636 141.216 751.284 142.068 754.318 143.773C757.352 145.46 759.679 147.83 761.298 150.881C762.918 153.915 763.727 157.443 763.727 161.466C763.727 165.489 762.918 169.026 761.298 172.077C759.679 175.111 757.352 177.48 754.318 179.185C751.284 180.872 747.636 181.716 743.375 181.716ZM743.477 171.284C744.67 171.284 745.702 170.884 746.571 170.082C747.44 169.281 748.114 168.139 748.591 166.656C749.068 165.173 749.307 163.409 749.307 161.364C749.307 159.301 749.068 157.537 748.591 156.071C748.114 154.588 747.44 153.446 746.571 152.645C745.702 151.844 744.67 151.443 743.477 151.443C742.216 151.443 741.134 151.844 740.23 152.645C739.327 153.446 738.636 154.588 738.159 156.071C737.682 157.537 737.443 159.301 737.443 161.364C737.443 163.409 737.682 165.173 738.159 166.656C738.636 168.139 739.327 169.281 740.23 170.082C741.134 170.884 742.216 171.284 743.477 171.284ZM769.455 181V141.727H782.852V149.193H783.261C784.08 146.739 785.477 144.795 787.455 143.364C789.432 141.932 791.784 141.216 794.511 141.216C797.273 141.216 799.651 141.949 801.645 143.415C803.639 144.864 804.841 146.79 805.25 149.193H805.659C806.324 146.79 807.739 144.864 809.903 143.415C812.068 141.949 814.608 141.216 817.523 141.216C821.29 141.216 824.341 142.426 826.676 144.847C829.028 147.267 830.205 150.489 830.205 154.511V181H816.091V158.091C816.091 156.369 815.656 155.023 814.787 154.051C813.918 153.062 812.75 152.568 811.284 152.568C809.835 152.568 808.685 153.062 807.832 154.051C806.997 155.023 806.58 156.369 806.58 158.091V181H793.08V158.091C793.08 156.369 792.645 155.023 791.776 154.051C790.906 153.062 789.739 152.568 788.273 152.568C787.301 152.568 786.466 152.79 785.767 153.233C785.068 153.676 784.523 154.315 784.131 155.151C783.756 155.969 783.568 156.949 783.568 158.091V181H769.455Z" fill="url(#paint6_radial_81_3)"/>
<path d="M171.267 237H167.892L174.037 219.545H177.94L184.094 237H180.719L176.057 223.125H175.92L171.267 237ZM171.378 230.156H180.582V232.696H171.378V230.156ZM197.92 237.256C196.613 237.256 195.491 236.969 194.553 236.395C193.621 235.821 192.902 235.028 192.397 234.017C191.897 233 191.647 231.83 191.647 230.506C191.647 229.176 191.902 228.003 192.414 226.986C192.925 225.963 193.647 225.168 194.579 224.599C195.516 224.026 196.624 223.739 197.902 223.739C198.965 223.739 199.905 223.935 200.724 224.327C201.547 224.713 202.204 225.261 202.692 225.972C203.181 226.676 203.459 227.5 203.527 228.443H200.579C200.459 227.812 200.175 227.287 199.726 226.866C199.283 226.44 198.689 226.227 197.945 226.227C197.314 226.227 196.76 226.398 196.283 226.739C195.806 227.074 195.434 227.557 195.167 228.188C194.905 228.818 194.775 229.574 194.775 230.455C194.775 231.347 194.905 232.114 195.167 232.756C195.428 233.392 195.795 233.884 196.266 234.23C196.743 234.571 197.303 234.741 197.945 234.741C198.4 234.741 198.806 234.656 199.164 234.486C199.527 234.31 199.831 234.057 200.076 233.727C200.32 233.398 200.488 232.997 200.579 232.526H203.527C203.454 233.452 203.181 234.273 202.709 234.989C202.238 235.699 201.596 236.256 200.783 236.659C199.971 237.057 199.016 237.256 197.92 237.256ZM214.405 231.494V223.909H217.49V237H214.498V234.673H214.362C214.067 235.406 213.581 236.006 212.905 236.472C212.234 236.937 211.407 237.17 210.425 237.17C209.567 237.17 208.808 236.98 208.149 236.599C207.496 236.213 206.984 235.653 206.615 234.92C206.246 234.182 206.061 233.29 206.061 232.244V223.909H209.146V231.767C209.146 232.597 209.373 233.256 209.828 233.744C210.282 234.233 210.879 234.477 211.618 234.477C212.072 234.477 212.513 234.366 212.939 234.145C213.365 233.923 213.714 233.594 213.987 233.156C214.265 232.713 214.405 232.159 214.405 231.494ZM220.662 237V223.909H223.654V226.091H223.79C224.029 225.335 224.438 224.753 225.018 224.344C225.603 223.929 226.27 223.722 227.02 223.722C227.191 223.722 227.381 223.73 227.591 223.747C227.807 223.759 227.986 223.778 228.128 223.807V226.645C227.998 226.599 227.79 226.56 227.506 226.526C227.228 226.486 226.958 226.466 226.697 226.466C226.134 226.466 225.628 226.588 225.179 226.832C224.736 227.071 224.387 227.403 224.131 227.83C223.876 228.256 223.748 228.747 223.748 229.304V237H220.662ZM233.711 237.264C232.881 237.264 232.134 237.116 231.469 236.821C230.81 236.52 230.287 236.077 229.901 235.491C229.52 234.906 229.33 234.185 229.33 233.327C229.33 232.588 229.466 231.977 229.739 231.494C230.012 231.011 230.384 230.625 230.856 230.335C231.327 230.045 231.858 229.827 232.449 229.679C233.046 229.526 233.662 229.415 234.299 229.347C235.066 229.267 235.688 229.196 236.165 229.134C236.643 229.065 236.989 228.963 237.205 228.827C237.427 228.685 237.537 228.466 237.537 228.17V228.119C237.537 227.477 237.347 226.98 236.966 226.628C236.586 226.276 236.037 226.099 235.322 226.099C234.566 226.099 233.966 226.264 233.523 226.594C233.086 226.923 232.79 227.312 232.637 227.761L229.756 227.352C229.983 226.557 230.358 225.892 230.881 225.358C231.404 224.818 232.043 224.415 232.799 224.148C233.554 223.875 234.39 223.739 235.304 223.739C235.935 223.739 236.563 223.812 237.188 223.96C237.813 224.108 238.384 224.352 238.901 224.693C239.418 225.028 239.833 225.486 240.145 226.065C240.464 226.645 240.623 227.369 240.623 228.239V237H237.657V235.202H237.554C237.367 235.565 237.103 235.906 236.762 236.224C236.427 236.537 236.003 236.79 235.492 236.983C234.986 237.17 234.393 237.264 233.711 237.264ZM234.512 234.997C235.131 234.997 235.668 234.875 236.123 234.631C236.577 234.381 236.927 234.051 237.171 233.642C237.421 233.233 237.546 232.787 237.546 232.304V230.761C237.449 230.841 237.285 230.915 237.052 230.983C236.824 231.051 236.569 231.111 236.285 231.162C236.001 231.213 235.719 231.259 235.441 231.298C235.162 231.338 234.921 231.372 234.716 231.401C234.256 231.463 233.844 231.565 233.481 231.707C233.117 231.849 232.83 232.048 232.62 232.304C232.41 232.554 232.304 232.878 232.304 233.276C232.304 233.844 232.512 234.273 232.927 234.562C233.341 234.852 233.87 234.997 234.512 234.997ZM250.262 223.909V226.295H242.736V223.909H250.262ZM244.594 220.773H247.679V233.062C247.679 233.477 247.742 233.795 247.867 234.017C247.998 234.233 248.168 234.381 248.378 234.46C248.589 234.54 248.822 234.58 249.077 234.58C249.27 234.58 249.447 234.565 249.606 234.537C249.77 234.509 249.895 234.483 249.981 234.46L250.501 236.872C250.336 236.929 250.1 236.991 249.793 237.06C249.492 237.128 249.123 237.168 248.685 237.179C247.912 237.202 247.216 237.085 246.597 236.83C245.978 236.568 245.486 236.165 245.123 235.619C244.765 235.074 244.589 234.392 244.594 233.574V220.773ZM258.497 237.256C257.184 237.256 256.051 236.983 255.096 236.438C254.148 235.886 253.417 235.108 252.906 234.102C252.395 233.091 252.139 231.901 252.139 230.531C252.139 229.185 252.395 228.003 252.906 226.986C253.423 225.963 254.145 225.168 255.071 224.599C255.997 224.026 257.085 223.739 258.335 223.739C259.142 223.739 259.903 223.869 260.619 224.131C261.341 224.386 261.977 224.784 262.528 225.324C263.085 225.864 263.523 226.551 263.841 227.386C264.159 228.216 264.318 229.205 264.318 230.352V231.298H253.588V229.219H261.361C261.355 228.628 261.227 228.102 260.977 227.642C260.727 227.176 260.378 226.81 259.929 226.543C259.486 226.276 258.969 226.142 258.378 226.142C257.747 226.142 257.193 226.295 256.716 226.602C256.238 226.903 255.866 227.301 255.599 227.795C255.338 228.284 255.204 228.821 255.199 229.406V231.222C255.199 231.983 255.338 232.636 255.616 233.182C255.895 233.722 256.284 234.136 256.784 234.426C257.284 234.71 257.869 234.852 258.54 234.852C258.988 234.852 259.395 234.79 259.758 234.665C260.122 234.534 260.437 234.344 260.704 234.094C260.971 233.844 261.173 233.534 261.309 233.165L264.19 233.489C264.008 234.25 263.662 234.915 263.15 235.483C262.645 236.045 261.997 236.483 261.207 236.795C260.417 237.102 259.514 237.256 258.497 237.256ZM271.786 237.23C270.758 237.23 269.837 236.966 269.025 236.438C268.212 235.909 267.57 235.142 267.099 234.136C266.627 233.131 266.391 231.909 266.391 230.472C266.391 229.017 266.63 227.79 267.107 226.79C267.59 225.784 268.241 225.026 269.059 224.514C269.877 223.997 270.789 223.739 271.795 223.739C272.562 223.739 273.192 223.869 273.687 224.131C274.181 224.386 274.573 224.696 274.863 225.06C275.152 225.418 275.377 225.756 275.536 226.074H275.664V219.545H278.758V237H275.724V234.938H275.536C275.377 235.256 275.147 235.594 274.846 235.952C274.545 236.304 274.147 236.605 273.652 236.855C273.158 237.105 272.536 237.23 271.786 237.23ZM272.647 234.699C273.3 234.699 273.857 234.523 274.317 234.17C274.777 233.812 275.127 233.315 275.366 232.679C275.604 232.043 275.724 231.301 275.724 230.455C275.724 229.608 275.604 228.872 275.366 228.247C275.133 227.622 274.786 227.136 274.326 226.79C273.871 226.443 273.312 226.27 272.647 226.27C271.959 226.27 271.385 226.449 270.925 226.807C270.465 227.165 270.118 227.659 269.885 228.29C269.652 228.92 269.536 229.642 269.536 230.455C269.536 231.273 269.652 232.003 269.885 232.645C270.124 233.281 270.474 233.784 270.934 234.153C271.4 234.517 271.971 234.699 272.647 234.699ZM291.084 219.545V237H287.998V219.545H291.084ZM294.256 237V223.909H297.341V237H294.256ZM295.807 222.051C295.319 222.051 294.898 221.889 294.546 221.565C294.194 221.236 294.018 220.841 294.018 220.381C294.018 219.915 294.194 219.52 294.546 219.196C294.898 218.866 295.319 218.702 295.807 218.702C296.302 218.702 296.722 218.866 297.069 219.196C297.421 219.52 297.597 219.915 297.597 220.381C297.597 220.841 297.421 221.236 297.069 221.565C296.722 221.889 296.302 222.051 295.807 222.051ZM310.861 227.369L308.048 227.676C307.969 227.392 307.829 227.125 307.63 226.875C307.437 226.625 307.176 226.423 306.846 226.27C306.517 226.116 306.113 226.04 305.636 226.04C304.994 226.04 304.454 226.179 304.017 226.457C303.585 226.736 303.372 227.097 303.378 227.54C303.372 227.92 303.511 228.23 303.795 228.469C304.085 228.707 304.562 228.903 305.227 229.057L307.46 229.534C308.699 229.801 309.619 230.224 310.221 230.804C310.829 231.384 311.136 232.142 311.142 233.08C311.136 233.903 310.895 234.631 310.417 235.261C309.946 235.886 309.29 236.375 308.449 236.727C307.608 237.08 306.642 237.256 305.551 237.256C303.949 237.256 302.659 236.92 301.682 236.25C300.704 235.574 300.122 234.634 299.934 233.429L302.943 233.139C303.079 233.73 303.369 234.176 303.812 234.477C304.255 234.778 304.832 234.929 305.542 234.929C306.275 234.929 306.863 234.778 307.307 234.477C307.755 234.176 307.98 233.804 307.98 233.361C307.98 232.986 307.835 232.676 307.545 232.432C307.261 232.187 306.818 232 306.216 231.869L303.983 231.401C302.727 231.139 301.798 230.699 301.196 230.08C300.594 229.455 300.295 228.665 300.301 227.71C300.295 226.903 300.514 226.205 300.957 225.614C301.406 225.017 302.028 224.557 302.824 224.233C303.625 223.903 304.548 223.739 305.594 223.739C307.128 223.739 308.335 224.065 309.216 224.719C310.102 225.372 310.65 226.256 310.861 227.369ZM320.223 223.909V226.295H312.697V223.909H320.223ZM314.555 220.773H317.64V233.062C317.64 233.477 317.703 233.795 317.828 234.017C317.959 234.233 318.129 234.381 318.339 234.46C318.55 234.54 318.782 234.58 319.038 234.58C319.231 234.58 319.407 234.565 319.567 234.537C319.731 234.509 319.856 234.483 319.942 234.46L320.461 236.872C320.297 236.929 320.061 236.991 319.754 237.06C319.453 237.128 319.084 237.168 318.646 237.179C317.873 237.202 317.177 237.085 316.558 236.83C315.939 236.568 315.447 236.165 315.084 235.619C314.726 235.074 314.55 234.392 314.555 233.574V220.773ZM334.466 237.256C333.188 237.256 332.08 236.974 331.143 236.412C330.205 235.849 329.478 235.062 328.961 234.051C328.449 233.04 328.194 231.858 328.194 230.506C328.194 229.153 328.449 227.969 328.961 226.952C329.478 225.935 330.205 225.145 331.143 224.582C332.08 224.02 333.188 223.739 334.466 223.739C335.745 223.739 336.853 224.02 337.79 224.582C338.728 225.145 339.452 225.935 339.964 226.952C340.481 227.969 340.739 229.153 340.739 230.506C340.739 231.858 340.481 233.04 339.964 234.051C339.452 235.062 338.728 235.849 337.79 236.412C336.853 236.974 335.745 237.256 334.466 237.256ZM334.483 234.784C335.177 234.784 335.756 234.594 336.222 234.213C336.688 233.827 337.035 233.31 337.262 232.662C337.495 232.014 337.611 231.293 337.611 230.497C337.611 229.696 337.495 228.972 337.262 228.324C337.035 227.67 336.688 227.151 336.222 226.764C335.756 226.378 335.177 226.185 334.483 226.185C333.773 226.185 333.182 226.378 332.711 226.764C332.245 227.151 331.895 227.67 331.662 228.324C331.435 228.972 331.322 229.696 331.322 230.497C331.322 231.293 331.435 232.014 331.662 232.662C331.895 233.31 332.245 233.827 332.711 234.213C333.182 234.594 333.773 234.784 334.483 234.784ZM349.988 223.909V226.295H342.25V223.909H349.988ZM344.184 237V222.673C344.184 221.793 344.366 221.06 344.73 220.474C345.099 219.889 345.594 219.452 346.213 219.162C346.832 218.872 347.52 218.727 348.275 218.727C348.809 218.727 349.284 218.77 349.699 218.855C350.113 218.94 350.42 219.017 350.619 219.085L350.005 221.472C349.875 221.432 349.71 221.392 349.511 221.352C349.312 221.307 349.091 221.284 348.846 221.284C348.273 221.284 347.866 221.423 347.628 221.702C347.395 221.974 347.278 222.366 347.278 222.878V237H344.184ZM360.736 237H357.361L363.505 219.545H367.409L373.562 237H370.187L365.525 223.125H365.389L360.736 237ZM360.846 230.156H370.051V232.696H360.846V230.156ZM376.786 237L373.087 223.909H376.232L378.533 233.114H378.652L381.005 223.909H384.116L386.468 233.062H386.596L388.863 223.909H392.016L388.309 237H385.096L382.641 228.153H382.462L380.008 237H376.786ZM399.591 237.256C398.278 237.256 397.145 236.983 396.19 236.438C395.241 235.886 394.511 235.108 394 234.102C393.488 233.091 393.233 231.901 393.233 230.531C393.233 229.185 393.488 228.003 394 226.986C394.517 225.963 395.238 225.168 396.165 224.599C397.091 224.026 398.179 223.739 399.429 223.739C400.236 223.739 400.997 223.869 401.713 224.131C402.434 224.386 403.071 224.784 403.622 225.324C404.179 225.864 404.616 226.551 404.934 227.386C405.253 228.216 405.412 229.205 405.412 230.352V231.298H394.682V229.219H402.454C402.449 228.628 402.321 228.102 402.071 227.642C401.821 227.176 401.471 226.81 401.023 226.543C400.579 226.276 400.062 226.142 399.471 226.142C398.841 226.142 398.287 226.295 397.809 226.602C397.332 226.903 396.96 227.301 396.693 227.795C396.432 228.284 396.298 228.821 396.292 229.406V231.222C396.292 231.983 396.432 232.636 396.71 233.182C396.988 233.722 397.378 234.136 397.878 234.426C398.378 234.71 398.963 234.852 399.633 234.852C400.082 234.852 400.488 234.79 400.852 234.665C401.216 234.534 401.531 234.344 401.798 234.094C402.065 233.844 402.267 233.534 402.403 233.165L405.284 233.489C405.102 234.25 404.755 234.915 404.244 235.483C403.738 236.045 403.091 236.483 402.301 236.795C401.511 237.102 400.608 237.256 399.591 237.256ZM418.368 227.369L415.556 227.676C415.476 227.392 415.337 227.125 415.138 226.875C414.945 226.625 414.684 226.423 414.354 226.27C414.025 226.116 413.621 226.04 413.144 226.04C412.502 226.04 411.962 226.179 411.525 226.457C411.093 226.736 410.88 227.097 410.885 227.54C410.88 227.92 411.019 228.23 411.303 228.469C411.593 228.707 412.07 228.903 412.735 229.057L414.968 229.534C416.206 229.801 417.127 230.224 417.729 230.804C418.337 231.384 418.644 232.142 418.65 233.08C418.644 233.903 418.402 234.631 417.925 235.261C417.454 235.886 416.797 236.375 415.956 236.727C415.116 237.08 414.15 237.256 413.059 237.256C411.456 237.256 410.167 236.92 409.189 236.25C408.212 235.574 407.63 234.634 407.442 233.429L410.451 233.139C410.587 233.73 410.877 234.176 411.32 234.477C411.763 234.778 412.34 234.929 413.05 234.929C413.783 234.929 414.371 234.778 414.814 234.477C415.263 234.176 415.488 233.804 415.488 233.361C415.488 232.986 415.343 232.676 415.053 232.432C414.769 232.187 414.326 232 413.724 231.869L411.491 231.401C410.235 231.139 409.306 230.699 408.704 230.08C408.101 229.455 407.803 228.665 407.809 227.71C407.803 226.903 408.022 226.205 408.465 225.614C408.914 225.017 409.536 224.557 410.331 224.233C411.133 223.903 412.056 223.739 413.101 223.739C414.635 223.739 415.843 224.065 416.724 224.719C417.61 225.372 418.158 226.256 418.368 227.369ZM426.904 237.256C425.626 237.256 424.518 236.974 423.58 236.412C422.643 235.849 421.915 235.062 421.398 234.051C420.887 233.04 420.631 231.858 420.631 230.506C420.631 229.153 420.887 227.969 421.398 226.952C421.915 225.935 422.643 225.145 423.58 224.582C424.518 224.02 425.626 223.739 426.904 223.739C428.182 223.739 429.29 224.02 430.228 224.582C431.165 225.145 431.89 225.935 432.401 226.952C432.918 227.969 433.177 229.153 433.177 230.506C433.177 231.858 432.918 233.04 432.401 234.051C431.89 235.062 431.165 235.849 430.228 236.412C429.29 236.974 428.182 237.256 426.904 237.256ZM426.921 234.784C427.614 234.784 428.194 234.594 428.66 234.213C429.126 233.827 429.472 233.31 429.699 232.662C429.932 232.014 430.049 231.293 430.049 230.497C430.049 229.696 429.932 228.972 429.699 228.324C429.472 227.67 429.126 227.151 428.66 226.764C428.194 226.378 427.614 226.185 426.921 226.185C426.211 226.185 425.62 226.378 425.148 226.764C424.682 227.151 424.333 227.67 424.1 228.324C423.873 228.972 423.759 229.696 423.759 230.497C423.759 231.293 423.873 232.014 424.1 232.662C424.333 233.31 424.682 233.827 425.148 234.213C425.62 234.594 426.211 234.784 426.921 234.784ZM435.795 237V223.909H438.744V226.134H438.898C439.17 225.384 439.622 224.798 440.253 224.378C440.883 223.952 441.636 223.739 442.511 223.739C443.398 223.739 444.145 223.955 444.753 224.386C445.366 224.812 445.798 225.395 446.048 226.134H446.184C446.474 225.406 446.963 224.827 447.65 224.395C448.344 223.957 449.165 223.739 450.113 223.739C451.318 223.739 452.301 224.119 453.062 224.881C453.824 225.642 454.204 226.753 454.204 228.213V237H451.111V228.69C451.111 227.878 450.895 227.284 450.463 226.909C450.031 226.528 449.503 226.338 448.878 226.338C448.133 226.338 447.551 226.571 447.13 227.037C446.716 227.497 446.508 228.097 446.508 228.835V237H443.483V228.562C443.483 227.886 443.278 227.347 442.869 226.943C442.466 226.54 441.937 226.338 441.284 226.338C440.841 226.338 440.437 226.452 440.074 226.679C439.71 226.901 439.42 227.216 439.204 227.625C438.988 228.028 438.88 228.5 438.88 229.04V237H435.795ZM463.13 237.256C461.817 237.256 460.684 236.983 459.729 236.438C458.78 235.886 458.05 235.108 457.539 234.102C457.027 233.091 456.772 231.901 456.772 230.531C456.772 229.185 457.027 228.003 457.539 226.986C458.056 225.963 458.777 225.168 459.704 224.599C460.63 224.026 461.718 223.739 462.968 223.739C463.775 223.739 464.536 223.869 465.252 224.131C465.974 224.386 466.61 224.784 467.161 225.324C467.718 225.864 468.155 226.551 468.474 227.386C468.792 228.216 468.951 229.205 468.951 230.352V231.298H458.221V229.219H465.993C465.988 228.628 465.86 228.102 465.61 227.642C465.36 227.176 465.01 226.81 464.562 226.543C464.118 226.276 463.601 226.142 463.01 226.142C462.38 226.142 461.826 226.295 461.349 226.602C460.871 226.903 460.499 227.301 460.232 227.795C459.971 228.284 459.837 228.821 459.831 229.406V231.222C459.831 231.983 459.971 232.636 460.249 233.182C460.527 233.722 460.917 234.136 461.417 234.426C461.917 234.71 462.502 234.852 463.172 234.852C463.621 234.852 464.027 234.79 464.391 234.665C464.755 234.534 465.07 234.344 465.337 234.094C465.604 233.844 465.806 233.534 465.942 233.165L468.823 233.489C468.641 234.25 468.295 234.915 467.783 235.483C467.277 236.045 466.63 236.483 465.84 236.795C465.05 237.102 464.147 237.256 463.13 237.256ZM479.892 237H476.517L482.662 219.545H486.565L492.719 237H489.344L484.682 223.125H484.545L479.892 237ZM480.003 230.156H489.207V232.696H480.003V230.156ZM497.404 223.909L500.046 228.741L502.731 223.909H505.995L502.049 230.455L506.063 237H502.816L500.046 232.287L497.302 237H494.029L498.018 230.455L494.131 223.909H497.404ZM508.381 237V223.909H511.466V237H508.381ZM509.932 222.051C509.444 222.051 509.023 221.889 508.671 221.565C508.319 221.236 508.143 220.841 508.143 220.381C508.143 219.915 508.319 219.52 508.671 219.196C509.023 218.866 509.444 218.702 509.932 218.702C510.427 218.702 510.847 218.866 511.194 219.196C511.546 219.52 511.722 219.915 511.722 220.381C511.722 220.841 511.546 221.236 511.194 221.565C510.847 221.889 510.427 222.051 509.932 222.051ZM520.349 237.256C519.071 237.256 517.963 236.974 517.025 236.412C516.088 235.849 515.361 235.062 514.844 234.051C514.332 233.04 514.076 231.858 514.076 230.506C514.076 229.153 514.332 227.969 514.844 226.952C515.361 225.935 516.088 225.145 517.025 224.582C517.963 224.02 519.071 223.739 520.349 223.739C521.628 223.739 522.736 224.02 523.673 224.582C524.611 225.145 525.335 225.935 525.846 226.952C526.363 227.969 526.622 229.153 526.622 230.506C526.622 231.858 526.363 233.04 525.846 234.051C525.335 235.062 524.611 235.849 523.673 236.412C522.736 236.974 521.628 237.256 520.349 237.256ZM520.366 234.784C521.059 234.784 521.639 234.594 522.105 234.213C522.571 233.827 522.917 233.31 523.145 232.662C523.378 232.014 523.494 231.293 523.494 230.497C523.494 229.696 523.378 228.972 523.145 228.324C522.917 227.67 522.571 227.151 522.105 226.764C521.639 226.378 521.059 226.185 520.366 226.185C519.656 226.185 519.065 226.378 518.594 226.764C518.128 227.151 517.778 227.67 517.545 228.324C517.318 228.972 517.204 229.696 517.204 230.497C517.204 231.293 517.318 232.014 517.545 232.662C517.778 233.31 518.128 233.827 518.594 234.213C519.065 234.594 519.656 234.784 520.366 234.784ZM529.241 237V223.909H532.189V226.134H532.343C532.616 225.384 533.067 224.798 533.698 224.378C534.329 223.952 535.081 223.739 535.956 223.739C536.843 223.739 537.59 223.955 538.198 224.386C538.812 224.812 539.243 225.395 539.493 226.134H539.63C539.92 225.406 540.408 224.827 541.096 224.395C541.789 223.957 542.61 223.739 543.559 223.739C544.763 223.739 545.746 224.119 546.508 224.881C547.269 225.642 547.65 226.753 547.65 228.213V237H544.556V228.69C544.556 227.878 544.34 227.284 543.908 226.909C543.476 226.528 542.948 226.338 542.323 226.338C541.579 226.338 540.996 226.571 540.576 227.037C540.161 227.497 539.954 228.097 539.954 228.835V237H536.928V228.562C536.928 227.886 536.724 227.347 536.314 226.943C535.911 226.54 535.383 226.338 534.729 226.338C534.286 226.338 533.883 226.452 533.519 226.679C533.155 226.901 532.866 227.216 532.65 227.625C532.434 228.028 532.326 228.5 532.326 229.04V237H529.241ZM556.733 237V223.909H559.818V237H556.733ZM558.284 222.051C557.795 222.051 557.375 221.889 557.023 221.565C556.67 221.236 556.494 220.841 556.494 220.381C556.494 219.915 556.67 219.52 557.023 219.196C557.375 218.866 557.795 218.702 558.284 218.702C558.778 218.702 559.199 218.866 559.545 219.196C559.898 219.52 560.074 219.915 560.074 220.381C560.074 220.841 559.898 221.236 559.545 221.565C559.199 221.889 558.778 222.051 558.284 222.051ZM562.991 237V223.909H565.939V226.134H566.093C566.366 225.384 566.817 224.798 567.448 224.378C568.079 223.952 568.831 223.739 569.706 223.739C570.593 223.739 571.34 223.955 571.948 224.386C572.562 224.812 572.993 225.395 573.243 226.134H573.38C573.67 225.406 574.158 224.827 574.846 224.395C575.539 223.957 576.36 223.739 577.309 223.739C578.513 223.739 579.496 224.119 580.258 224.881C581.019 225.642 581.4 226.753 581.4 228.213V237H578.306V228.69C578.306 227.878 578.09 227.284 577.658 226.909C577.226 226.528 576.698 226.338 576.073 226.338C575.329 226.338 574.746 226.571 574.326 227.037C573.911 227.497 573.704 228.097 573.704 228.835V237H570.678V228.562C570.678 227.886 570.474 227.347 570.064 226.943C569.661 226.54 569.133 226.338 568.479 226.338C568.036 226.338 567.633 226.452 567.269 226.679C566.905 226.901 566.616 227.216 566.4 227.625C566.184 228.028 566.076 228.5 566.076 229.04V237H562.991ZM584.53 241.909V223.909H587.564V226.074H587.743C587.902 225.756 588.126 225.418 588.416 225.06C588.706 224.696 589.098 224.386 589.592 224.131C590.086 223.869 590.717 223.739 591.484 223.739C592.496 223.739 593.407 223.997 594.22 224.514C595.038 225.026 595.686 225.784 596.163 226.79C596.646 227.79 596.888 229.017 596.888 230.472C596.888 231.909 596.652 233.131 596.18 234.136C595.709 235.142 595.067 235.909 594.254 236.438C593.442 236.966 592.521 237.23 591.493 237.23C590.743 237.23 590.121 237.105 589.626 236.855C589.132 236.605 588.734 236.304 588.433 235.952C588.138 235.594 587.907 235.256 587.743 234.938H587.615V241.909H584.53ZM587.555 230.455C587.555 231.301 587.675 232.043 587.913 232.679C588.157 233.315 588.507 233.812 588.961 234.17C589.422 234.523 589.978 234.699 590.632 234.699C591.314 234.699 591.885 234.517 592.345 234.153C592.805 233.784 593.152 233.281 593.385 232.645C593.623 232.003 593.743 231.273 593.743 230.455C593.743 229.642 593.626 228.92 593.393 228.29C593.16 227.659 592.814 227.165 592.353 226.807C591.893 226.449 591.319 226.27 590.632 226.27C589.973 226.27 589.413 226.443 588.953 226.79C588.493 227.136 588.143 227.622 587.905 228.247C587.672 228.872 587.555 229.608 587.555 230.455ZM602.615 219.545V237H599.53V219.545H602.615ZM611.583 237.256C610.27 237.256 609.137 236.983 608.182 236.438C607.233 235.886 606.503 235.108 605.992 234.102C605.481 233.091 605.225 231.901 605.225 230.531C605.225 229.185 605.481 228.003 605.992 226.986C606.509 225.963 607.231 225.168 608.157 224.599C609.083 224.026 610.171 223.739 611.421 223.739C612.228 223.739 612.989 223.869 613.705 224.131C614.427 224.386 615.063 224.784 615.614 225.324C616.171 225.864 616.608 226.551 616.927 227.386C617.245 228.216 617.404 229.205 617.404 230.352V231.298H606.674V229.219H614.447C614.441 228.628 614.313 228.102 614.063 227.642C613.813 227.176 613.464 226.81 613.015 226.543C612.572 226.276 612.054 226.142 611.464 226.142C610.833 226.142 610.279 226.295 609.802 226.602C609.324 226.903 608.952 227.301 608.685 227.795C608.424 228.284 608.29 228.821 608.285 229.406V231.222C608.285 231.983 608.424 232.636 608.702 233.182C608.981 233.722 609.37 234.136 609.87 234.426C610.37 234.71 610.955 234.852 611.626 234.852C612.074 234.852 612.481 234.79 612.844 234.665C613.208 234.534 613.523 234.344 613.79 234.094C614.057 233.844 614.259 233.534 614.395 233.165L617.276 233.489C617.094 234.25 616.748 234.915 616.236 235.483C615.731 236.045 615.083 236.483 614.293 236.795C613.503 237.102 612.6 237.256 611.583 237.256ZM620.014 237V223.909H622.963V226.134H623.116C623.389 225.384 623.841 224.798 624.471 224.378C625.102 223.952 625.855 223.739 626.73 223.739C627.616 223.739 628.363 223.955 628.971 224.386C629.585 224.812 630.017 225.395 630.267 226.134H630.403C630.693 225.406 631.182 224.827 631.869 224.395C632.562 223.957 633.383 223.739 634.332 223.739C635.537 223.739 636.52 224.119 637.281 224.881C638.042 225.642 638.423 226.753 638.423 228.213V237H635.329V228.69C635.329 227.878 635.113 227.284 634.682 226.909C634.25 226.528 633.721 226.338 633.096 226.338C632.352 226.338 631.77 226.571 631.349 227.037C630.934 227.497 630.727 228.097 630.727 228.835V237H627.701V228.562C627.701 227.886 627.497 227.347 627.088 226.943C626.684 226.54 626.156 226.338 625.503 226.338C625.059 226.338 624.656 226.452 624.292 226.679C623.929 226.901 623.639 227.216 623.423 227.625C623.207 228.028 623.099 228.5 623.099 229.04V237H620.014ZM647.349 237.256C646.036 237.256 644.902 236.983 643.948 236.438C642.999 235.886 642.269 235.108 641.758 234.102C641.246 233.091 640.991 231.901 640.991 230.531C640.991 229.185 641.246 228.003 641.758 226.986C642.275 225.963 642.996 225.168 643.922 224.599C644.849 224.026 645.937 223.739 647.187 223.739C647.993 223.739 648.755 223.869 649.471 224.131C650.192 224.386 650.829 224.784 651.38 225.324C651.937 225.864 652.374 226.551 652.692 227.386C653.01 228.216 653.17 229.205 653.17 230.352V231.298H642.439V229.219H650.212C650.206 228.628 650.079 228.102 649.829 227.642C649.579 227.176 649.229 226.81 648.78 226.543C648.337 226.276 647.82 226.142 647.229 226.142C646.599 226.142 646.045 226.295 645.567 226.602C645.09 226.903 644.718 227.301 644.451 227.795C644.189 228.284 644.056 228.821 644.05 229.406V231.222C644.05 231.983 644.189 232.636 644.468 233.182C644.746 233.722 645.135 234.136 645.635 234.426C646.135 234.71 646.721 234.852 647.391 234.852C647.84 234.852 648.246 234.79 648.61 234.665C648.974 234.534 649.289 234.344 649.556 234.094C649.823 233.844 650.025 233.534 650.161 233.165L653.042 233.489C652.86 234.25 652.513 234.915 652.002 235.483C651.496 236.045 650.849 236.483 650.059 236.795C649.269 237.102 648.366 237.256 647.349 237.256ZM658.865 229.33V237H655.78V223.909H658.728V226.134H658.882C659.183 225.401 659.663 224.818 660.322 224.386C660.987 223.955 661.808 223.739 662.785 223.739C663.689 223.739 664.476 223.932 665.146 224.318C665.822 224.705 666.345 225.264 666.714 225.997C667.089 226.73 667.274 227.619 667.268 228.665V237H664.183V229.142C664.183 228.267 663.956 227.582 663.501 227.088C663.052 226.594 662.43 226.347 661.635 226.347C661.095 226.347 660.615 226.466 660.194 226.705C659.78 226.937 659.453 227.276 659.214 227.719C658.981 228.162 658.865 228.699 658.865 229.33ZM676.942 223.909V226.295H669.416V223.909H676.942ZM671.274 220.773H674.359V233.062C674.359 233.477 674.422 233.795 674.547 234.017C674.677 234.233 674.848 234.381 675.058 234.46C675.268 234.54 675.501 234.58 675.757 234.58C675.95 234.58 676.126 234.565 676.285 234.537C676.45 234.509 676.575 234.483 676.66 234.46L677.18 236.872C677.015 236.929 676.78 236.991 676.473 237.06C676.172 237.128 675.802 237.168 675.365 237.179C674.592 237.202 673.896 237.085 673.277 236.83C672.657 236.568 672.166 236.165 671.802 235.619C671.444 235.074 671.268 234.392 671.274 233.574V220.773ZM683.289 237.264C682.459 237.264 681.712 237.116 681.047 236.821C680.388 236.52 679.866 236.077 679.479 235.491C679.099 234.906 678.908 234.185 678.908 233.327C678.908 232.588 679.045 231.977 679.317 231.494C679.59 231.011 679.962 230.625 680.434 230.335C680.905 230.045 681.437 229.827 682.027 229.679C682.624 229.526 683.241 229.415 683.877 229.347C684.644 229.267 685.266 229.196 685.743 229.134C686.221 229.065 686.567 228.963 686.783 228.827C687.005 228.685 687.116 228.466 687.116 228.17V228.119C687.116 227.477 686.925 226.98 686.545 226.628C686.164 226.276 685.616 226.099 684.9 226.099C684.144 226.099 683.545 226.264 683.101 226.594C682.664 226.923 682.368 227.312 682.215 227.761L679.334 227.352C679.562 226.557 679.937 225.892 680.459 225.358C680.982 224.818 681.621 224.415 682.377 224.148C683.133 223.875 683.968 223.739 684.883 223.739C685.513 223.739 686.141 223.812 686.766 223.96C687.391 224.108 687.962 224.352 688.479 224.693C688.996 225.028 689.411 225.486 689.724 226.065C690.042 226.645 690.201 227.369 690.201 228.239V237H687.235V235.202H687.133C686.945 235.565 686.681 235.906 686.34 236.224C686.005 236.537 685.581 236.79 685.07 236.983C684.564 237.17 683.971 237.264 683.289 237.264ZM684.09 234.997C684.709 234.997 685.246 234.875 685.701 234.631C686.155 234.381 686.505 234.051 686.749 233.642C686.999 233.233 687.124 232.787 687.124 232.304V230.761C687.027 230.841 686.863 230.915 686.63 230.983C686.402 231.051 686.147 231.111 685.863 231.162C685.579 231.213 685.297 231.259 685.019 231.298C684.741 231.338 684.499 231.372 684.295 231.401C683.834 231.463 683.422 231.565 683.059 231.707C682.695 231.849 682.408 232.048 682.198 232.304C681.988 232.554 681.883 232.878 681.883 233.276C681.883 233.844 682.09 234.273 682.505 234.562C682.92 234.852 683.448 234.997 684.09 234.997ZM699.84 223.909V226.295H692.314V223.909H699.84ZM694.172 220.773H697.258V233.062C697.258 233.477 697.32 233.795 697.445 234.017C697.576 234.233 697.746 234.381 697.956 234.46C698.167 234.54 698.4 234.58 698.655 234.58C698.849 234.58 699.025 234.565 699.184 234.537C699.349 234.509 699.474 234.483 699.559 234.46L700.079 236.872C699.914 236.929 699.678 236.991 699.371 237.06C699.07 237.128 698.701 237.168 698.263 237.179C697.491 237.202 696.795 237.085 696.175 236.83C695.556 236.568 695.064 236.165 694.701 235.619C694.343 235.074 694.167 234.392 694.172 233.574V220.773ZM702.42 237V223.909H705.505V237H702.42ZM703.971 222.051C703.483 222.051 703.062 221.889 702.71 221.565C702.358 221.236 702.182 220.841 702.182 220.381C702.182 219.915 702.358 219.52 702.71 219.196C703.062 218.866 703.483 218.702 703.971 218.702C704.466 218.702 704.886 218.866 705.233 219.196C705.585 219.52 705.761 219.915 705.761 220.381C705.761 220.841 705.585 221.236 705.233 221.565C704.886 221.889 704.466 222.051 703.971 222.051ZM714.388 237.256C713.11 237.256 712.002 236.974 711.064 236.412C710.127 235.849 709.4 235.062 708.883 234.051C708.371 233.04 708.116 231.858 708.116 230.506C708.116 229.153 708.371 227.969 708.883 226.952C709.4 225.935 710.127 225.145 711.064 224.582C712.002 224.02 713.11 223.739 714.388 223.739C715.667 223.739 716.775 224.02 717.712 224.582C718.65 225.145 719.374 225.935 719.885 226.952C720.402 227.969 720.661 229.153 720.661 230.506C720.661 231.858 720.402 233.04 719.885 234.051C719.374 235.062 718.65 235.849 717.712 236.412C716.775 236.974 715.667 237.256 714.388 237.256ZM714.405 234.784C715.099 234.784 715.678 234.594 716.144 234.213C716.61 233.827 716.956 233.31 717.184 232.662C717.417 232.014 717.533 231.293 717.533 230.497C717.533 229.696 717.417 228.972 717.184 228.324C716.956 227.67 716.61 227.151 716.144 226.764C715.678 226.378 715.099 226.185 714.405 226.185C713.695 226.185 713.104 226.378 712.633 226.764C712.167 227.151 711.817 227.67 711.584 228.324C711.357 228.972 711.243 229.696 711.243 230.497C711.243 231.293 711.357 232.014 711.584 232.662C711.817 233.31 712.167 233.827 712.633 234.213C713.104 234.594 713.695 234.784 714.405 234.784ZM726.365 229.33V237H723.28V223.909H726.228V226.134H726.382C726.683 225.401 727.163 224.818 727.822 224.386C728.487 223.955 729.308 223.739 730.285 223.739C731.189 223.739 731.976 223.932 732.646 224.318C733.322 224.705 733.845 225.264 734.214 225.997C734.589 226.73 734.774 227.619 734.768 228.665V237H731.683V229.142C731.683 228.267 731.456 227.582 731.001 227.088C730.552 226.594 729.93 226.347 729.135 226.347C728.595 226.347 728.115 226.466 727.694 226.705C727.28 226.937 726.953 227.276 726.714 227.719C726.481 228.162 726.365 228.699 726.365 229.33ZM748.251 227.369L745.439 227.676C745.359 227.392 745.22 227.125 745.021 226.875C744.828 226.625 744.567 226.423 744.237 226.27C743.907 226.116 743.504 226.04 743.027 226.04C742.385 226.04 741.845 226.179 741.407 226.457C740.976 226.736 740.763 227.097 740.768 227.54C740.763 227.92 740.902 228.23 741.186 228.469C741.476 228.707 741.953 228.903 742.618 229.057L744.851 229.534C746.089 229.801 747.01 230.224 747.612 230.804C748.22 231.384 748.527 232.142 748.532 233.08C748.527 233.903 748.285 234.631 747.808 235.261C747.336 235.886 746.68 236.375 745.839 236.727C744.998 237.08 744.032 237.256 742.942 237.256C741.339 237.256 740.05 236.92 739.072 236.25C738.095 235.574 737.513 234.634 737.325 233.429L740.334 233.139C740.47 233.73 740.76 234.176 741.203 234.477C741.646 234.778 742.223 234.929 742.933 234.929C743.666 234.929 744.254 234.778 744.697 234.477C745.146 234.176 745.371 233.804 745.371 233.361C745.371 232.986 745.226 232.676 744.936 232.432C744.652 232.187 744.209 232 743.606 231.869L741.373 231.401C740.118 231.139 739.189 230.699 738.586 230.08C737.984 229.455 737.686 228.665 737.692 227.71C737.686 226.903 737.905 226.205 738.348 225.614C738.797 225.017 739.419 224.557 740.214 224.233C741.015 223.903 741.939 223.739 742.984 223.739C744.518 223.739 745.726 224.065 746.606 224.719C747.493 225.372 748.041 226.256 748.251 227.369ZM760.797 237.264C759.967 237.264 759.22 237.116 758.555 236.821C757.896 236.52 757.373 236.077 756.987 235.491C756.606 234.906 756.416 234.185 756.416 233.327C756.416 232.588 756.552 231.977 756.825 231.494C757.098 231.011 757.47 230.625 757.942 230.335C758.413 230.045 758.944 229.827 759.535 229.679C760.132 229.526 760.748 229.415 761.385 229.347C762.152 229.267 762.774 229.196 763.251 229.134C763.728 229.065 764.075 228.963 764.291 228.827C764.513 228.685 764.623 228.466 764.623 228.17V228.119C764.623 227.477 764.433 226.98 764.052 226.628C763.672 226.276 763.123 226.099 762.407 226.099C761.652 226.099 761.052 226.264 760.609 226.594C760.172 226.923 759.876 227.312 759.723 227.761L756.842 227.352C757.069 226.557 757.444 225.892 757.967 225.358C758.49 224.818 759.129 224.415 759.885 224.148C760.64 223.875 761.476 223.739 762.39 223.739C763.021 223.739 763.649 223.812 764.274 223.96C764.899 224.108 765.47 224.352 765.987 224.693C766.504 225.028 766.919 225.486 767.231 226.065C767.55 226.645 767.709 227.369 767.709 228.239V237H764.743V235.202H764.64C764.453 235.565 764.189 235.906 763.848 236.224C763.513 236.537 763.089 236.79 762.578 236.983C762.072 237.17 761.478 237.264 760.797 237.264ZM761.598 234.997C762.217 234.997 762.754 234.875 763.209 234.631C763.663 234.381 764.013 234.051 764.257 233.642C764.507 233.233 764.632 232.787 764.632 232.304V230.761C764.535 230.841 764.371 230.915 764.138 230.983C763.91 231.051 763.655 231.111 763.371 231.162C763.086 231.213 762.805 231.259 762.527 231.298C762.248 231.338 762.007 231.372 761.802 231.401C761.342 231.463 760.93 231.565 760.567 231.707C760.203 231.849 759.916 232.048 759.706 232.304C759.496 232.554 759.39 232.878 759.39 233.276C759.39 233.844 759.598 234.273 760.013 234.562C760.427 234.852 760.956 234.997 761.598 234.997ZM773.896 229.33V237H770.811V223.909H773.76V226.134H773.913C774.214 225.401 774.694 224.818 775.353 224.386C776.018 223.955 776.839 223.739 777.817 223.739C778.72 223.739 779.507 223.932 780.177 224.318C780.853 224.705 781.376 225.264 781.746 225.997C782.121 226.73 782.305 227.619 782.3 228.665V237H779.214V229.142C779.214 228.267 778.987 227.582 778.532 227.088C778.084 226.594 777.461 226.347 776.666 226.347C776.126 226.347 775.646 226.466 775.226 226.705C774.811 226.937 774.484 227.276 774.246 227.719C774.013 228.162 773.896 228.699 773.896 229.33ZM790.294 237.23C789.265 237.23 788.345 236.966 787.532 236.438C786.72 235.909 786.078 235.142 785.606 234.136C785.135 233.131 784.899 231.909 784.899 230.472C784.899 229.017 785.138 227.79 785.615 226.79C786.098 225.784 786.748 225.026 787.567 224.514C788.385 223.997 789.297 223.739 790.302 223.739C791.069 223.739 791.7 223.869 792.194 224.131C792.689 224.386 793.081 224.696 793.371 225.06C793.66 225.418 793.885 225.756 794.044 226.074H794.172V219.545H797.265V237H794.231V234.938H794.044C793.885 235.256 793.655 235.594 793.353 235.952C793.052 236.304 792.655 236.605 792.16 236.855C791.666 237.105 791.044 237.23 790.294 237.23ZM791.155 234.699C791.808 234.699 792.365 234.523 792.825 234.17C793.285 233.812 793.635 233.315 793.873 232.679C794.112 232.043 794.231 231.301 794.231 230.455C794.231 229.608 794.112 228.872 793.873 228.247C793.64 227.622 793.294 227.136 792.834 226.79C792.379 226.443 791.819 226.27 791.155 226.27C790.467 226.27 789.893 226.449 789.433 226.807C788.973 227.165 788.626 227.659 788.393 228.29C788.16 228.92 788.044 229.642 788.044 230.455C788.044 231.273 788.16 232.003 788.393 232.645C788.632 233.281 788.981 233.784 789.442 234.153C789.907 234.517 790.478 234.699 791.155 234.699ZM806.506 241.909V223.909H809.54V226.074H809.719C809.878 225.756 810.103 225.418 810.393 225.06C810.682 224.696 811.074 224.386 811.569 224.131C812.063 223.869 812.694 223.739 813.461 223.739C814.472 223.739 815.384 223.997 816.197 224.514C817.015 225.026 817.662 225.784 818.14 226.79C818.623 227.79 818.864 229.017 818.864 230.472C818.864 231.909 818.628 233.131 818.157 234.136C817.685 235.142 817.043 235.909 816.231 236.438C815.418 236.966 814.498 237.23 813.469 237.23C812.719 237.23 812.097 237.105 811.603 236.855C811.108 236.605 810.711 236.304 810.41 235.952C810.114 235.594 809.884 235.256 809.719 234.938H809.591V241.909H806.506ZM809.532 230.455C809.532 231.301 809.651 232.043 809.89 232.679C810.134 233.315 810.483 233.812 810.938 234.17C811.398 234.523 811.955 234.699 812.608 234.699C813.29 234.699 813.861 234.517 814.322 234.153C814.782 233.784 815.128 233.281 815.361 232.645C815.6 232.003 815.719 231.273 815.719 230.455C815.719 229.642 815.603 228.92 815.37 228.29C815.137 227.659 814.79 227.165 814.33 226.807C813.87 226.449 813.296 226.27 812.608 226.27C811.949 226.27 811.39 226.443 810.929 226.79C810.469 227.136 810.12 227.622 809.881 228.247C809.648 228.872 809.532 229.608 809.532 230.455ZM821.506 237V223.909H824.498V226.091H824.634C824.873 225.335 825.282 224.753 825.861 224.344C826.447 223.929 827.114 223.722 827.864 223.722C828.035 223.722 828.225 223.73 828.435 223.747C828.651 223.759 828.83 223.778 828.972 223.807V226.645C828.841 226.599 828.634 226.56 828.35 226.526C828.072 226.486 827.802 226.466 827.54 226.466C826.978 226.466 826.472 226.588 826.023 226.832C825.58 227.071 825.231 227.403 824.975 227.83C824.719 228.256 824.591 228.747 824.591 229.304V237H821.506ZM836.193 237.256C834.915 237.256 833.807 236.974 832.869 236.412C831.932 235.849 831.204 235.062 830.687 234.051C830.176 233.04 829.92 231.858 829.92 230.506C829.92 229.153 830.176 227.969 830.687 226.952C831.204 225.935 831.932 225.145 832.869 224.582C833.807 224.02 834.915 223.739 836.193 223.739C837.471 223.739 838.579 224.02 839.517 224.582C840.454 225.145 841.179 225.935 841.69 226.952C842.207 227.969 842.466 229.153 842.466 230.506C842.466 231.858 842.207 233.04 841.69 234.051C841.179 235.062 840.454 235.849 839.517 236.412C838.579 236.974 837.471 237.256 836.193 237.256ZM836.21 234.784C836.903 234.784 837.483 234.594 837.949 234.213C838.415 233.827 838.761 233.31 838.988 232.662C839.221 232.014 839.338 231.293 839.338 230.497C839.338 229.696 839.221 228.972 838.988 228.324C838.761 227.67 838.415 227.151 837.949 226.764C837.483 226.378 836.903 226.185 836.21 226.185C835.5 226.185 834.909 226.378 834.437 226.764C833.971 227.151 833.622 227.67 833.389 228.324C833.162 228.972 833.048 229.696 833.048 230.497C833.048 231.293 833.162 232.014 833.389 232.662C833.622 233.31 833.971 233.827 834.437 234.213C834.909 234.594 835.5 234.784 836.21 234.784ZM845.084 223.909H848.17V237.75C848.17 238.693 847.991 239.472 847.633 240.085C847.275 240.699 846.758 241.156 846.081 241.457C845.405 241.759 844.584 241.909 843.618 241.909C843.505 241.909 843.4 241.906 843.303 241.901C843.206 241.901 843.101 241.898 842.988 241.892V239.378C843.073 239.384 843.15 239.386 843.218 239.386C843.286 239.392 843.357 239.395 843.431 239.395C844.022 239.395 844.445 239.25 844.701 238.96C844.956 238.676 845.084 238.259 845.084 237.707V223.909ZM846.618 222.051C846.124 222.051 845.701 221.889 845.349 221.565C845.002 221.236 844.829 220.841 844.829 220.381C844.829 219.915 845.002 219.52 845.349 219.196C845.701 218.866 846.124 218.702 846.618 218.702C847.107 218.702 847.525 218.866 847.871 219.196C848.224 219.52 848.4 219.915 848.4 220.381C848.4 220.841 848.224 221.236 847.871 221.565C847.525 221.889 847.107 222.051 846.618 222.051ZM857.138 237.256C855.825 237.256 854.692 236.983 853.737 236.438C852.788 235.886 852.058 235.108 851.547 234.102C851.035 233.091 850.78 231.901 850.78 230.531C850.78 229.185 851.035 228.003 851.547 226.986C852.064 225.963 852.785 225.168 853.711 224.599C854.638 224.026 855.726 223.739 856.976 223.739C857.782 223.739 858.544 223.869 859.26 224.131C859.981 224.386 860.618 224.784 861.169 225.324C861.726 225.864 862.163 226.551 862.481 227.386C862.8 228.216 862.959 229.205 862.959 230.352V231.298H852.228V229.219H860.001C859.996 228.628 859.868 228.102 859.618 227.642C859.368 227.176 859.018 226.81 858.569 226.543C858.126 226.276 857.609 226.142 857.018 226.142C856.388 226.142 855.834 226.295 855.356 226.602C854.879 226.903 854.507 227.301 854.24 227.795C853.978 228.284 853.845 228.821 853.839 229.406V231.222C853.839 231.983 853.978 232.636 854.257 233.182C854.535 233.722 854.925 234.136 855.425 234.426C855.925 234.71 856.51 234.852 857.18 234.852C857.629 234.852 858.035 234.79 858.399 234.665C858.763 234.534 859.078 234.344 859.345 234.094C859.612 233.844 859.814 233.534 859.95 233.165L862.831 233.489C862.649 234.25 862.302 234.915 861.791 235.483C861.285 236.045 860.638 236.483 859.848 236.795C859.058 237.102 858.155 237.256 857.138 237.256ZM871.279 237.256C869.972 237.256 868.85 236.969 867.912 236.395C866.981 235.821 866.262 235.028 865.756 234.017C865.256 233 865.006 231.83 865.006 230.506C865.006 229.176 865.262 228.003 865.773 226.986C866.285 225.963 867.006 225.168 867.938 224.599C868.876 224.026 869.983 223.739 871.262 223.739C872.324 223.739 873.265 223.935 874.083 224.327C874.907 224.713 875.563 225.261 876.052 225.972C876.54 226.676 876.819 227.5 876.887 228.443H873.938C873.819 227.812 873.535 227.287 873.086 226.866C872.643 226.44 872.049 226.227 871.304 226.227C870.674 226.227 870.12 226.398 869.643 226.739C869.165 227.074 868.793 227.557 868.526 228.188C868.265 228.818 868.134 229.574 868.134 230.455C868.134 231.347 868.265 232.114 868.526 232.756C868.787 233.392 869.154 233.884 869.626 234.23C870.103 234.571 870.662 234.741 871.304 234.741C871.759 234.741 872.165 234.656 872.523 234.486C872.887 234.31 873.191 234.057 873.435 233.727C873.679 233.398 873.847 232.997 873.938 232.526H876.887C876.813 233.452 876.54 234.273 876.069 234.989C875.597 235.699 874.955 236.256 874.143 236.659C873.33 237.057 872.376 237.256 871.279 237.256ZM885.957 223.909V226.295H878.432V223.909H885.957ZM880.29 220.773H883.375V233.062C883.375 233.477 883.437 233.795 883.562 234.017C883.693 234.233 883.863 234.381 884.074 234.46C884.284 234.54 884.517 234.58 884.773 234.58C884.966 234.58 885.142 234.565 885.301 234.537C885.466 234.509 885.591 234.483 885.676 234.46L886.196 236.872C886.031 236.929 885.795 236.991 885.488 237.06C885.187 237.128 884.818 237.168 884.38 237.179C883.608 237.202 882.912 237.085 882.292 236.83C881.673 236.568 881.182 236.165 880.818 235.619C880.46 235.074 880.284 234.392 880.29 233.574V220.773ZM898.697 227.369L895.884 227.676C895.804 227.392 895.665 227.125 895.466 226.875C895.273 226.625 895.012 226.423 894.682 226.27C894.353 226.116 893.949 226.04 893.472 226.04C892.83 226.04 892.29 226.179 891.853 226.457C891.421 226.736 891.208 227.097 891.214 227.54C891.208 227.92 891.347 228.23 891.631 228.469C891.921 228.707 892.398 228.903 893.063 229.057L895.296 229.534C896.535 229.801 897.455 230.224 898.057 230.804C898.665 231.384 898.972 232.142 898.978 233.08C898.972 233.903 898.731 234.631 898.253 235.261C897.782 235.886 897.126 236.375 896.285 236.727C895.444 237.08 894.478 237.256 893.387 237.256C891.785 237.256 890.495 236.92 889.518 236.25C888.54 235.574 887.958 234.634 887.77 233.429L890.779 233.139C890.915 233.73 891.205 234.176 891.648 234.477C892.091 234.778 892.668 234.929 893.378 234.929C894.111 234.929 894.699 234.778 895.143 234.477C895.591 234.176 895.816 233.804 895.816 233.361C895.816 232.986 895.671 232.676 895.381 232.432C895.097 232.187 894.654 232 894.052 231.869L891.819 231.401C890.563 231.139 889.634 230.699 889.032 230.08C888.429 229.455 888.131 228.665 888.137 227.71C888.131 226.903 888.35 226.205 888.793 225.614C889.242 225.017 889.864 224.557 890.66 224.233C891.461 223.903 892.384 223.739 893.429 223.739C894.964 223.739 896.171 224.065 897.052 224.719C897.938 225.372 898.486 226.256 898.697 227.369Z" fill="#09101F"/>
</g>
<rect x="0.786865" y="0.5" width="1065.67" height="399" stroke="#E0E0E0"/>
<defs>
<filter id="filter0_d_81_3" x="130.166" y="29.6461" width="835.175" height="207.104" filterUnits="userSpaceOnUse" color-interpolation-filters="sRGB">
<feFlood flood-opacity="0" result="BackgroundImageFix"/>
<feColorMatrix in="SourceAlpha" type="matrix" values="0 0 0 0 0 0 0 0 0 0 0 0 0 0 0 0 0 0 127 0" result="hardAlpha"/>
<feOffset dy="4"/>
<feGaussianBlur stdDeviation="16"/>
<feComposite in2="hardAlpha" operator="out"/>
<feColorMatrix type="matrix" values="0 0 0 0 0.1375 0 0 0 0 0.328673 0 0 0 0 1 0 0 0 1 0"/>
<feBlend mode="normal" in2="BackgroundImageFix" result="effect1_dropShadow_81_3"/>
<feBlend mode="normal" in="SourceGraphic" in2="effect1_dropShadow_81_3" result="shape"/>
</filter>
<linearGradient id="paint0_linear_81_3" x1="19.7213" y1="116.647" x2="-2.87256" y2="156.473" gradientUnits="userSpaceOnUse">
<stop stop-color="#6A68FF"/>
<stop offset="1" stop-color="#6C7EFF" stop-opacity="0"/>
</linearGradient>
<linearGradient id="paint1_linear_81_3" x1="-3.64529e+13" y1="177.186" x2="-3.64529e+13" y2="124.542" gradientUnits="userSpaceOnUse">
<stop stop-color="#6A68FF"/>
<stop offset="1" stop-color="#6C7EFF" stop-opacity="0"/>
</linearGradient>
<linearGradient id="paint2_linear_81_3" x1="-3.64529e+13" y1="199.779" x2="-3.64529e+13" y2="147.135" gradientUnits="userSpaceOnUse">
<stop stop-color="#6A68FF"/>
<stop offset="1" stop-color="#6C7EFF" stop-opacity="0"/>
</linearGradient>
<linearGradient id="paint3_linear_81_3" x1="3.64529e+13" y1="-225668" x2="3.64529e+13" y2="-225616" gradientUnits="userSpaceOnUse">
<stop stop-color="#6A68FF"/>
<stop offset="1" stop-color="#6C7EFF" stop-opacity="0"/>
</linearGradient>
<linearGradient id="paint4_linear_81_3" x1="3.64529e+13" y1="-225668" x2="3.64529e+13" y2="-225616" gradientUnits="userSpaceOnUse">
<stop stop-color="#6A68FF"/>
<stop offset="1" stop-color="#6C7EFF" stop-opacity="0"/>
</linearGradient>
<radialGradient id="paint5_radial_81_3" cx="0" cy="0" r="1" gradientUnits="userSpaceOnUse" gradientTransform="translate(533.5 199.694) rotate(90) scale(199.694 269.511)">
<stop stop-color="white"/>
<stop offset="1" stop-color="#D9D9D9" stop-opacity="0"/>
</radialGradient>
<radialGradient id="paint6_radial_81_3" cx="0" cy="0" r="1" gradientUnits="userSpaceOnUse" gradientTransform="translate(849.271 176.25) rotate(173.59) scale(594.246 9247.69)">
<stop stop-color="#0D0F26"/>
<stop offset="0.622778" stop-color="#384382"/>
<stop offset="0.773151" stop-color="#504F79"/>
<stop offset="1" stop-color="#0D0F26"/>
</radialGradient>
<clipPath id="clip0_81_3">
<rect x="0.286865" width="1066.67" height="400" fill="white"/>
</clipPath>
<clipPath id="clip1_81_3">
<rect width="1085" height="458" fill="white" transform="translate(-9 -29)"/>
</clipPath>
</defs>
</svg>
